<?xml version="1.0" standalone="no"?>
 <!DOCTYPE svg PUBLIC "-//W3C//DTD SVG 1.1//EN" 
 "http://www.w3.org/Graphics/SVG/1.1/DTD/svg11.dtd"> 
<svg
  xmlns:svg="http://www.w3.org/2000/svg"
  xmlns="http://www.w3.org/2000/svg"
  xmlns:xlink="http://www.w3.org/1999/xlink"
  version="1.1"
  width="297.0022mm" height="210.0072mm" viewBox="0.0000 0.0000 297.0022 210.0072">
<title>SVG Image created as PCF2123-F_Cu.svg date 2024/07/26 14:03:14 </title>
  <desc>Image generated by PCBNEW </desc>
<g style="fill:#000000; fill-opacity:1.0000;stroke:#000000; stroke-opacity:1.0000;
stroke-linecap:round; stroke-linejoin:round;"
 transform="translate(0 0) scale(1 1)">
</g>
<g style="fill:none; 
stroke:#000000; stroke-width:0.3000; stroke-opacity:1; 
stroke-linecap:round; stroke-linejoin:round;">
<g transform="rotate(90.000000 87.2222 81.3897)">
<text x="87.2222" y="82.1397"
transform="scale(-1 1) translate(-174.444400 0)"
textLength="15.0286" font-size="2.0000" lengthAdjust="spacingAndGlyphs"
text-anchor="middle" opacity="0">61.6394 mm</text>
</g>
<g class="stroked-text"><desc>61.6394 mm</desc>
<path d="M88.0439 87.6040
L88.0439 87.8897
" />
<path d="M88.0439 87.8897
L87.9724 88.0326
" />
<path d="M87.9724 88.0326
L87.9010 88.1040
" />
<path d="M87.9010 88.1040
L87.6867 88.2469
" />
<path d="M87.6867 88.2469
L87.4010 88.3183
" />
<path d="M87.4010 88.3183
L86.8296 88.3183
" />
<path d="M86.8296 88.3183
L86.6867 88.2469
" />
<path d="M86.6867 88.2469
L86.6153 88.1754
" />
<path d="M86.6153 88.1754
L86.5439 88.0326
" />
<path d="M86.5439 88.0326
L86.5439 87.7469
" />
<path d="M86.5439 87.7469
L86.6153 87.6040
" />
<path d="M86.6153 87.6040
L86.6867 87.5326
" />
<path d="M86.6867 87.5326
L86.8296 87.4611
" />
<path d="M86.8296 87.4611
L87.1867 87.4611
" />
<path d="M87.1867 87.4611
L87.3296 87.5326
" />
<path d="M87.3296 87.5326
L87.4010 87.6040
" />
<path d="M87.4010 87.6040
L87.4724 87.7469
" />
<path d="M87.4724 87.7469
L87.4724 88.0326
" />
<path d="M87.4724 88.0326
L87.4010 88.1754
" />
<path d="M87.4010 88.1754
L87.3296 88.2469
" />
<path d="M87.3296 88.2469
L87.1867 88.3183
" />
<path d="M86.5439 86.0326
L86.5439 86.8897
" />
<path d="M86.5439 86.4611
L88.0439 86.4611
" />
<path d="M88.0439 86.4611
L87.8296 86.6040
" />
<path d="M87.8296 86.6040
L87.6867 86.7469
" />
<path d="M87.6867 86.7469
L87.6153 86.8897
" />
<path d="M86.6867 85.3897
L86.6153 85.3183
" />
<path d="M86.6153 85.3183
L86.5439 85.3897
" />
<path d="M86.5439 85.3897
L86.6153 85.4611
" />
<path d="M86.6153 85.4611
L86.6867 85.3897
" />
<path d="M86.6867 85.3897
L86.5439 85.3897
" />
<path d="M88.0439 84.0326
L88.0439 84.3183
" />
<path d="M88.0439 84.3183
L87.9724 84.4611
" />
<path d="M87.9724 84.4611
L87.9010 84.5326
" />
<path d="M87.9010 84.5326
L87.6867 84.6754
" />
<path d="M87.6867 84.6754
L87.4010 84.7469
" />
<path d="M87.4010 84.7469
L86.8296 84.7469
" />
<path d="M86.8296 84.7469
L86.6867 84.6754
" />
<path d="M86.6867 84.6754
L86.6153 84.6040
" />
<path d="M86.6153 84.6040
L86.5439 84.4611
" />
<path d="M86.5439 84.4611
L86.5439 84.1754
" />
<path d="M86.5439 84.1754
L86.6153 84.0326
" />
<path d="M86.6153 84.0326
L86.6867 83.9611
" />
<path d="M86.6867 83.9611
L86.8296 83.8897
" />
<path d="M86.8296 83.8897
L87.1867 83.8897
" />
<path d="M87.1867 83.8897
L87.3296 83.9611
" />
<path d="M87.3296 83.9611
L87.4010 84.0326
" />
<path d="M87.4010 84.0326
L87.4724 84.1754
" />
<path d="M87.4724 84.1754
L87.4724 84.4611
" />
<path d="M87.4724 84.4611
L87.4010 84.6040
" />
<path d="M87.4010 84.6040
L87.3296 84.6754
" />
<path d="M87.3296 84.6754
L87.1867 84.7469
" />
<path d="M88.0439 83.3897
L88.0439 82.4611
" />
<path d="M88.0439 82.4611
L87.4724 82.9611
" />
<path d="M87.4724 82.9611
L87.4724 82.7469
" />
<path d="M87.4724 82.7469
L87.4010 82.6040
" />
<path d="M87.4010 82.6040
L87.3296 82.5326
" />
<path d="M87.3296 82.5326
L87.1867 82.4611
" />
<path d="M87.1867 82.4611
L86.8296 82.4611
" />
<path d="M86.8296 82.4611
L86.6867 82.5326
" />
<path d="M86.6867 82.5326
L86.6153 82.6040
" />
<path d="M86.6153 82.6040
L86.5439 82.7469
" />
<path d="M86.5439 82.7469
L86.5439 83.1754
" />
<path d="M86.5439 83.1754
L86.6153 83.3183
" />
<path d="M86.6153 83.3183
L86.6867 83.3897
" />
<path d="M86.5439 81.7469
L86.5439 81.4612
" />
<path d="M86.5439 81.4612
L86.6153 81.3183
" />
<path d="M86.6153 81.3183
L86.6867 81.2469
" />
<path d="M86.6867 81.2469
L86.9010 81.1040
" />
<path d="M86.9010 81.1040
L87.1867 81.0326
" />
<path d="M87.1867 81.0326
L87.7582 81.0326
" />
<path d="M87.7582 81.0326
L87.9010 81.1040
" />
<path d="M87.9010 81.1040
L87.9724 81.1754
" />
<path d="M87.9724 81.1754
L88.0439 81.3183
" />
<path d="M88.0439 81.3183
L88.0439 81.6040
" />
<path d="M88.0439 81.6040
L87.9724 81.7469
" />
<path d="M87.9724 81.7469
L87.9010 81.8183
" />
<path d="M87.9010 81.8183
L87.7582 81.8897
" />
<path d="M87.7582 81.8897
L87.4010 81.8897
" />
<path d="M87.4010 81.8897
L87.2582 81.8183
" />
<path d="M87.2582 81.8183
L87.1867 81.7469
" />
<path d="M87.1867 81.7469
L87.1153 81.6040
" />
<path d="M87.1153 81.6040
L87.1153 81.3183
" />
<path d="M87.1153 81.3183
L87.1867 81.1754
" />
<path d="M87.1867 81.1754
L87.2582 81.1040
" />
<path d="M87.2582 81.1040
L87.4010 81.0326
" />
<path d="M87.5439 79.7469
L86.5439 79.7469
" />
<path d="M88.1153 80.1040
L87.0439 80.4612
" />
<path d="M87.0439 80.4612
L87.0439 79.5326
" />
<path d="M86.5439 77.8183
L87.5439 77.8183
" />
<path d="M87.4010 77.8183
L87.4724 77.7469
" />
<path d="M87.4724 77.7469
L87.5439 77.6040
" />
<path d="M87.5439 77.6040
L87.5439 77.3897
" />
<path d="M87.5439 77.3897
L87.4724 77.2469
" />
<path d="M87.4724 77.2469
L87.3296 77.1754
" />
<path d="M87.3296 77.1754
L86.5439 77.1754
" />
<path d="M87.3296 77.1754
L87.4724 77.1040
" />
<path d="M87.4724 77.1040
L87.5439 76.9612
" />
<path d="M87.5439 76.9612
L87.5439 76.7469
" />
<path d="M87.5439 76.7469
L87.4724 76.6040
" />
<path d="M87.4724 76.6040
L87.3296 76.5326
" />
<path d="M87.3296 76.5326
L86.5439 76.5326
" />
<path d="M86.5439 75.8183
L87.5439 75.8183
" />
<path d="M87.4010 75.8183
L87.4724 75.7469
" />
<path d="M87.4724 75.7469
L87.5439 75.6040
" />
<path d="M87.5439 75.6040
L87.5439 75.3897
" />
<path d="M87.5439 75.3897
L87.4724 75.2469
" />
<path d="M87.4724 75.2469
L87.3296 75.1754
" />
<path d="M87.3296 75.1754
L86.5439 75.1754
" />
<path d="M87.3296 75.1754
L87.4724 75.1040
" />
<path d="M87.4724 75.1040
L87.5439 74.9612
" />
<path d="M87.5439 74.9612
L87.5439 74.7469
" />
<path d="M87.5439 74.7469
L87.4724 74.6040
" />
<path d="M87.4724 74.6040
L87.3296 74.5326
" />
<path d="M87.3296 74.5326
L86.5439 74.5326
" />
</g></g>
<g style="fill:none; 
stroke:#000000; stroke-width:0.2000; stroke-opacity:1; 
stroke-linecap:round; stroke-linejoin:round;">
<path d="M94.0696 112.2094
L84.8358 112.2094
" />
<path d="M94.0696 50.5700
L84.8358 50.5700
" />
<path d="M85.4222 112.2094
L85.4222 50.5700
" />
<path d="M85.4222 112.2094
L85.4222 50.5700
" />
<path d="M85.4222 112.2094
L86.0086 111.0829
" />
<path d="M85.4222 112.2094
L84.8358 111.0829
" />
<path d="M85.4222 50.5700
L84.8358 51.6965
" />
<path d="M85.4222 50.5700
L86.0086 51.6965
" />
</g>
<g style="fill:none; 
stroke:#000000; stroke-width:0.3000; stroke-opacity:1; 
stroke-linecap:round; stroke-linejoin:round;">
<text x="130.9622" y="51.7100"
transform="scale(-1 1) translate(-261.924400 0)"
textLength="15.0286" font-size="2.0000" lengthAdjust="spacingAndGlyphs"
text-anchor="middle" opacity="0">68.4000 mm</text>
<g class="stroked-text"><desc>68.4000 mm</desc>
<path d="M137.1765 50.1383
L137.4622 50.1383
" />
<path d="M137.4622 50.1383
L137.6051 50.2098
" />
<path d="M137.6051 50.2098
L137.6765 50.2812
" />
<path d="M137.6765 50.2812
L137.8193 50.4955
" />
<path d="M137.8193 50.4955
L137.8908 50.7812
" />
<path d="M137.8908 50.7812
L137.8908 51.3526
" />
<path d="M137.8908 51.3526
L137.8193 51.4955
" />
<path d="M137.8193 51.4955
L137.7479 51.5669
" />
<path d="M137.7479 51.5669
L137.6051 51.6383
" />
<path d="M137.6051 51.6383
L137.3193 51.6383
" />
<path d="M137.3193 51.6383
L137.1765 51.5669
" />
<path d="M137.1765 51.5669
L137.1051 51.4955
" />
<path d="M137.1051 51.4955
L137.0336 51.3526
" />
<path d="M137.0336 51.3526
L137.0336 50.9955
" />
<path d="M137.0336 50.9955
L137.1051 50.8526
" />
<path d="M137.1051 50.8526
L137.1765 50.7812
" />
<path d="M137.1765 50.7812
L137.3193 50.7098
" />
<path d="M137.3193 50.7098
L137.6051 50.7098
" />
<path d="M137.6051 50.7098
L137.7479 50.7812
" />
<path d="M137.7479 50.7812
L137.8193 50.8526
" />
<path d="M137.8193 50.8526
L137.8908 50.9955
" />
<path d="M136.1765 50.7812
L136.3193 50.7098
" />
<path d="M136.3193 50.7098
L136.3908 50.6383
" />
<path d="M136.3908 50.6383
L136.4622 50.4955
" />
<path d="M136.4622 50.4955
L136.4622 50.4240
" />
<path d="M136.4622 50.4240
L136.3908 50.2812
" />
<path d="M136.3908 50.2812
L136.3193 50.2098
" />
<path d="M136.3193 50.2098
L136.1765 50.1383
" />
<path d="M136.1765 50.1383
L135.8908 50.1383
" />
<path d="M135.8908 50.1383
L135.7479 50.2098
" />
<path d="M135.7479 50.2098
L135.6765 50.2812
" />
<path d="M135.6765 50.2812
L135.6051 50.4240
" />
<path d="M135.6051 50.4240
L135.6051 50.4955
" />
<path d="M135.6051 50.4955
L135.6765 50.6383
" />
<path d="M135.6765 50.6383
L135.7479 50.7098
" />
<path d="M135.7479 50.7098
L135.8908 50.7812
" />
<path d="M135.8908 50.7812
L136.1765 50.7812
" />
<path d="M136.1765 50.7812
L136.3193 50.8526
" />
<path d="M136.3193 50.8526
L136.3908 50.9240
" />
<path d="M136.3908 50.9240
L136.4622 51.0669
" />
<path d="M136.4622 51.0669
L136.4622 51.3526
" />
<path d="M136.4622 51.3526
L136.3908 51.4955
" />
<path d="M136.3908 51.4955
L136.3193 51.5669
" />
<path d="M136.3193 51.5669
L136.1765 51.6383
" />
<path d="M136.1765 51.6383
L135.8908 51.6383
" />
<path d="M135.8908 51.6383
L135.7479 51.5669
" />
<path d="M135.7479 51.5669
L135.6765 51.4955
" />
<path d="M135.6765 51.4955
L135.6051 51.3526
" />
<path d="M135.6051 51.3526
L135.6051 51.0669
" />
<path d="M135.6051 51.0669
L135.6765 50.9240
" />
<path d="M135.6765 50.9240
L135.7479 50.8526
" />
<path d="M135.7479 50.8526
L135.8908 50.7812
" />
<path d="M134.9622 51.4955
L134.8908 51.5669
" />
<path d="M134.8908 51.5669
L134.9622 51.6383
" />
<path d="M134.9622 51.6383
L135.0336 51.5669
" />
<path d="M135.0336 51.5669
L134.9622 51.4955
" />
<path d="M134.9622 51.4955
L134.9622 51.6383
" />
<path d="M133.6051 50.6383
L133.6051 51.6383
" />
<path d="M133.9622 50.0669
L134.3193 51.1383
" />
<path d="M134.3193 51.1383
L133.3908 51.1383
" />
<path d="M132.5336 50.1383
L132.3908 50.1383
" />
<path d="M132.3908 50.1383
L132.2479 50.2098
" />
<path d="M132.2479 50.2098
L132.1765 50.2812
" />
<path d="M132.1765 50.2812
L132.1051 50.4240
" />
<path d="M132.1051 50.4240
L132.0336 50.7098
" />
<path d="M132.0336 50.7098
L132.0336 51.0669
" />
<path d="M132.0336 51.0669
L132.1051 51.3526
" />
<path d="M132.1051 51.3526
L132.1765 51.4955
" />
<path d="M132.1765 51.4955
L132.2479 51.5669
" />
<path d="M132.2479 51.5669
L132.3908 51.6383
" />
<path d="M132.3908 51.6383
L132.5336 51.6383
" />
<path d="M132.5336 51.6383
L132.6765 51.5669
" />
<path d="M132.6765 51.5669
L132.7479 51.4955
" />
<path d="M132.7479 51.4955
L132.8193 51.3526
" />
<path d="M132.8193 51.3526
L132.8908 51.0669
" />
<path d="M132.8908 51.0669
L132.8908 50.7098
" />
<path d="M132.8908 50.7098
L132.8193 50.4240
" />
<path d="M132.8193 50.4240
L132.7479 50.2812
" />
<path d="M132.7479 50.2812
L132.6765 50.2098
" />
<path d="M132.6765 50.2098
L132.5336 50.1383
" />
<path d="M131.1051 50.1383
L130.9622 50.1383
" />
<path d="M130.9622 50.1383
L130.8193 50.2098
" />
<path d="M130.8193 50.2098
L130.7479 50.2812
" />
<path d="M130.7479 50.2812
L130.6765 50.4240
" />
<path d="M130.6765 50.4240
L130.6051 50.7098
" />
<path d="M130.6051 50.7098
L130.6051 51.0669
" />
<path d="M130.6051 51.0669
L130.6765 51.3526
" />
<path d="M130.6765 51.3526
L130.7479 51.4955
" />
<path d="M130.7479 51.4955
L130.8193 51.5669
" />
<path d="M130.8193 51.5669
L130.9622 51.6383
" />
<path d="M130.9622 51.6383
L131.1051 51.6383
" />
<path d="M131.1051 51.6383
L131.2479 51.5669
" />
<path d="M131.2479 51.5669
L131.3193 51.4955
" />
<path d="M131.3193 51.4955
L131.3908 51.3526
" />
<path d="M131.3908 51.3526
L131.4622 51.0669
" />
<path d="M131.4622 51.0669
L131.4622 50.7098
" />
<path d="M131.4622 50.7098
L131.3908 50.4240
" />
<path d="M131.3908 50.4240
L131.3193 50.2812
" />
<path d="M131.3193 50.2812
L131.2479 50.2098
" />
<path d="M131.2479 50.2098
L131.1051 50.1383
" />
<path d="M129.6765 50.1383
L129.5336 50.1383
" />
<path d="M129.5336 50.1383
L129.3908 50.2098
" />
<path d="M129.3908 50.2098
L129.3193 50.2812
" />
<path d="M129.3193 50.2812
L129.2479 50.4240
" />
<path d="M129.2479 50.4240
L129.1765 50.7098
" />
<path d="M129.1765 50.7098
L129.1765 51.0669
" />
<path d="M129.1765 51.0669
L129.2479 51.3526
" />
<path d="M129.2479 51.3526
L129.3193 51.4955
" />
<path d="M129.3193 51.4955
L129.3908 51.5669
" />
<path d="M129.3908 51.5669
L129.5336 51.6383
" />
<path d="M129.5336 51.6383
L129.6765 51.6383
" />
<path d="M129.6765 51.6383
L129.8193 51.5669
" />
<path d="M129.8193 51.5669
L129.8908 51.4955
" />
<path d="M129.8908 51.4955
L129.9622 51.3526
" />
<path d="M129.9622 51.3526
L130.0336 51.0669
" />
<path d="M130.0336 51.0669
L130.0336 50.7098
" />
<path d="M130.0336 50.7098
L129.9622 50.4240
" />
<path d="M129.9622 50.4240
L129.8908 50.2812
" />
<path d="M129.8908 50.2812
L129.8193 50.2098
" />
<path d="M129.8193 50.2098
L129.6765 50.1383
" />
<path d="M127.3908 51.6383
L127.3908 50.6383
" />
<path d="M127.3908 50.7812
L127.3193 50.7098
" />
<path d="M127.3193 50.7098
L127.1765 50.6383
" />
<path d="M127.1765 50.6383
L126.9622 50.6383
" />
<path d="M126.9622 50.6383
L126.8193 50.7098
" />
<path d="M126.8193 50.7098
L126.7479 50.8526
" />
<path d="M126.7479 50.8526
L126.7479 51.6383
" />
<path d="M126.7479 50.8526
L126.6765 50.7098
" />
<path d="M126.6765 50.7098
L126.5336 50.6383
" />
<path d="M126.5336 50.6383
L126.3193 50.6383
" />
<path d="M126.3193 50.6383
L126.1765 50.7098
" />
<path d="M126.1765 50.7098
L126.1051 50.8526
" />
<path d="M126.1051 50.8526
L126.1051 51.6383
" />
<path d="M125.3908 51.6383
L125.3908 50.6383
" />
<path d="M125.3908 50.7812
L125.3193 50.7098
" />
<path d="M125.3193 50.7098
L125.1765 50.6383
" />
<path d="M125.1765 50.6383
L124.9622 50.6383
" />
<path d="M124.9622 50.6383
L124.8193 50.7098
" />
<path d="M124.8193 50.7098
L124.7479 50.8526
" />
<path d="M124.7479 50.8526
L124.7479 51.6383
" />
<path d="M124.7479 50.8526
L124.6765 50.7098
" />
<path d="M124.6765 50.7098
L124.5336 50.6383
" />
<path d="M124.5336 50.6383
L124.3193 50.6383
" />
<path d="M124.3193 50.6383
L124.1765 50.7098
" />
<path d="M124.1765 50.7098
L124.1051 50.8526
" />
<path d="M124.1051 50.8526
L124.1051 51.6383
" />
</g></g>
<g style="fill:none; 
stroke:#000000; stroke-width:0.2000; stroke-opacity:1; 
stroke-linecap:round; stroke-linejoin:round;">
<path d="M165.1622 56.2200
L165.1622 52.1736
" />
<path d="M96.7622 56.2200
L96.7622 52.1736
" />
<path d="M165.1622 52.7600
L96.7622 52.7600
" />
<path d="M165.1622 52.7600
L96.7622 52.7600
" />
<path d="M165.1622 52.7600
L164.0357 52.1736
" />
<path d="M165.1622 52.7600
L164.0357 53.3464
" />
<path d="M96.7622 52.7600
L97.8887 53.3464
" />
<path d="M96.7622 52.7600
L97.8887 52.1736
" />
<path style="fill:#000000; fill-opacity:1.0000; stroke:none;fill-rule:evenodd;"
d="M 119.6022,83.0100
119.6022,85.1100
121.7022,85.1100
121.7022,83.0100
Z" /> 
</g>
<g style="fill:#000000; fill-opacity:1.0000; stroke:none;">
<circle cx="120.6522" cy="104.0600" r="1.0500" /> 
<path style="fill:#000000; fill-opacity:1.0000; stroke:none;fill-rule:evenodd;"
d="M 154.5522,93.0900
150.9522,92.4900
150.9522,91.3900
154.5522,90.7900
Z" /> 
<path style="fill:#000000; fill-opacity:1.0000; stroke:none;fill-rule:evenodd;"
d="M 145.1522,90.7900
148.7522,91.3900
148.7522,92.4900
145.1522,93.0900
Z" /> 
<path style="fill:#000000; fill-opacity:1.0000; stroke:none;fill-rule:evenodd;"
d="M 142.1972,82.7100
142.1015,82.7290
142.0204,82.7832
141.9662,82.8643
141.9472,82.9600
141.9472,83.7600
141.9662,83.8557
142.0204,83.9368
142.1015,83.9910
142.1972,84.0100
143.4472,84.0100
143.5429,83.9910
143.6240,83.9368
143.6782,83.8557
143.6972,83.7600
143.6972,82.9600
143.6782,82.8643
143.6240,82.7832
143.5429,82.7290
143.4472,82.7100
Z" /> 
<path style="fill:#000000; fill-opacity:1.0000; stroke:none;fill-rule:evenodd;"
d="M 142.1972,85.8100
142.1015,85.8290
142.0204,85.8832
141.9662,85.9643
141.9472,86.0600
141.9472,86.8600
141.9662,86.9557
142.0204,87.0368
142.1015,87.0910
142.1972,87.1100
143.4472,87.1100
143.5429,87.0910
143.6240,87.0368
143.6782,86.9557
143.6972,86.8600
143.6972,86.0600
143.6782,85.9643
143.6240,85.8832
143.5429,85.8290
143.4472,85.8100
Z" /> 
<path style="fill:#000000; fill-opacity:1.0000; stroke:none;fill-rule:evenodd;"
d="M 141.7372,78.2600
141.8329,78.2410
141.9140,78.1868
141.9682,78.1057
141.9872,78.0100
141.9872,77.2100
141.9682,77.1143
141.9140,77.0332
141.8329,76.9790
141.7372,76.9600
140.4872,76.9600
140.3915,76.9790
140.3104,77.0332
140.2562,77.1143
140.2372,77.2100
140.2372,78.0100
140.2562,78.1057
140.3104,78.1868
140.3915,78.2410
140.4872,78.2600
Z" /> 
<path style="fill:#000000; fill-opacity:1.0000; stroke:none;fill-rule:evenodd;"
d="M 141.7372,75.1600
141.8329,75.1410
141.9140,75.0868
141.9682,75.0057
141.9872,74.9100
141.9872,74.1100
141.9682,74.0143
141.9140,73.9332
141.8329,73.8790
141.7372,73.8600
140.4872,73.8600
140.3915,73.8790
140.3104,73.9332
140.2562,74.0143
140.2372,74.1100
140.2372,74.9100
140.2562,75.0057
140.3104,75.0868
140.3915,75.1410
140.4872,75.1600
Z" /> 
<path style="fill:#000000; fill-opacity:1.0000; stroke:none;fill-rule:evenodd;"
d="M 123.9022,62.1100
120.3022,61.5100
120.3022,60.4100
123.9022,59.8100
Z" /> 
<path style="fill:#000000; fill-opacity:1.0000; stroke:none;fill-rule:evenodd;"
d="M 114.5022,59.8100
118.1022,60.4100
118.1022,61.5100
114.5022,62.1100
Z" /> 
</g>
<g style="fill:#000000; fill-opacity:1.0000; stroke:none;">
<circle cx="149.6822" cy="71.1200" r="0.5000" /> 
</g>
<g style="fill:#000000; fill-opacity:1.0000; stroke:none;">
<circle cx="149.6822" cy="68.5800" r="0.5000" /> 
<path style="fill:#000000; fill-opacity:1.0000; stroke:none;fill-rule:evenodd;"
d="M 141.4672,67.7950
141.5629,67.7760
141.6440,67.7218
141.6982,67.6407
141.7172,67.5450
141.7172,66.8700
141.6982,66.7743
141.6440,66.6932
141.5629,66.6390
141.4672,66.6200
140.5172,66.6200
140.4215,66.6390
140.3404,66.6932
140.2862,66.7743
140.2672,66.8700
140.2672,67.5450
140.2862,67.6407
140.3404,67.7218
140.4215,67.7760
140.5172,67.7950
Z" /> 
<path style="fill:#000000; fill-opacity:1.0000; stroke:none;fill-rule:evenodd;"
d="M 141.4672,65.7200
141.5629,65.7010
141.6440,65.6468
141.6982,65.5657
141.7172,65.4700
141.7172,64.7950
141.6982,64.6993
141.6440,64.6182
141.5629,64.5640
141.4672,64.5450
140.5172,64.5450
140.4215,64.5640
140.3404,64.6182
140.2862,64.6993
140.2672,64.7950
140.2672,65.4700
140.2862,65.5657
140.3404,65.6468
140.4215,65.7010
140.5172,65.7200
Z" /> 
<path style="fill:#000000; fill-opacity:1.0000; stroke:none;fill-rule:evenodd;"
d="M 139.3222,81.0250
139.3032,80.9293
139.2490,80.8482
139.1679,80.7940
139.0722,80.7750
138.2722,80.7750
138.1765,80.7940
138.0954,80.8482
138.0412,80.9293
138.0222,81.0250
138.0222,82.2750
138.0412,82.3707
138.0954,82.4518
138.1765,82.5060
138.2722,82.5250
139.0722,82.5250
139.1679,82.5060
139.2490,82.4518
139.3032,82.3707
139.3222,82.2750
Z" /> 
<path style="fill:#000000; fill-opacity:1.0000; stroke:none;fill-rule:evenodd;"
d="M 136.2222,81.0250
136.2032,80.9293
136.1490,80.8482
136.0679,80.7940
135.9722,80.7750
135.1722,80.7750
135.0765,80.7940
134.9954,80.8482
134.9412,80.9293
134.9222,81.0250
134.9222,82.2750
134.9412,82.3707
134.9954,82.4518
135.0765,82.5060
135.1722,82.5250
135.9722,82.5250
136.0679,82.5060
136.1490,82.4518
136.2032,82.3707
136.2222,82.2750
Z" /> 
<path style="fill:#000000; fill-opacity:1.0000; stroke:none;fill-rule:evenodd;"
d="M 140.4672,69.3450
140.3715,69.3640
140.2904,69.4182
140.2362,69.4993
140.2172,69.5950
140.2172,70.2700
140.2362,70.3657
140.2904,70.4468
140.3715,70.5010
140.4672,70.5200
141.4172,70.5200
141.5129,70.5010
141.5940,70.4468
141.6482,70.3657
141.6672,70.2700
141.6672,69.5950
141.6482,69.4993
141.5940,69.4182
141.5129,69.3640
141.4172,69.3450
Z" /> 
<path style="fill:#000000; fill-opacity:1.0000; stroke:none;fill-rule:evenodd;"
d="M 140.4672,71.4200
140.3715,71.4390
140.2904,71.4932
140.2362,71.5743
140.2172,71.6700
140.2172,72.3450
140.2362,72.4407
140.2904,72.5218
140.3715,72.5760
140.4672,72.5950
141.4172,72.5950
141.5129,72.5760
141.5940,72.5218
141.6482,72.4407
141.6672,72.3450
141.6672,71.6700
141.6482,71.5743
141.5940,71.4932
141.5129,71.4390
141.4172,71.4200
Z" /> 
<path style="fill:#000000; fill-opacity:1.0000; stroke:none;fill-rule:evenodd;"
d="M 132.1072,84.2450
132.0882,84.1493
132.0340,84.0682
131.9529,84.0140
131.8572,83.9950
131.1822,83.9950
131.0865,84.0140
131.0054,84.0682
130.9512,84.1493
130.9322,84.2450
130.9322,85.1950
130.9512,85.2907
131.0054,85.3718
131.0865,85.4260
131.1822,85.4450
131.8572,85.4450
131.9529,85.4260
132.0340,85.3718
132.0882,85.2907
132.1072,85.1950
Z" /> 
<path style="fill:#000000; fill-opacity:1.0000; stroke:none;fill-rule:evenodd;"
d="M 130.0322,84.2450
130.0132,84.1493
129.9590,84.0682
129.8779,84.0140
129.7822,83.9950
129.1072,83.9950
129.0115,84.0140
128.9304,84.0682
128.8762,84.1493
128.8572,84.2450
128.8572,85.1950
128.8762,85.2907
128.9304,85.3718
129.0115,85.4260
129.1072,85.4450
129.7822,85.4450
129.8779,85.4260
129.9590,85.3718
130.0132,85.2907
130.0322,85.1950
Z" /> 
<path style="fill:#000000; fill-opacity:1.0000; stroke:none;fill-rule:evenodd;"
d="M 134.1622,70.5700
135.1622,70.5700
135.1622,70.3700
134.1622,70.3700
Z" /> 
<path style="fill:#000000; fill-opacity:1.0000; stroke:none;fill-rule:evenodd;"
d="M 134.1622,71.2200
135.1622,71.2200
135.1622,71.0200
134.1622,71.0200
Z" /> 
<path style="fill:#000000; fill-opacity:1.0000; stroke:none;fill-rule:evenodd;"
d="M 134.1622,71.8700
135.1622,71.8700
135.1622,71.6700
134.1622,71.6700
Z" /> 
<path style="fill:#000000; fill-opacity:1.0000; stroke:none;fill-rule:evenodd;"
d="M 134.1622,72.5200
135.1622,72.5200
135.1622,72.3200
134.1622,72.3200
Z" /> 
<path style="fill:#000000; fill-opacity:1.0000; stroke:none;fill-rule:evenodd;"
d="M 134.1622,73.1700
135.1622,73.1700
135.1622,72.9700
134.1622,72.9700
Z" /> 
<path style="fill:#000000; fill-opacity:1.0000; stroke:none;fill-rule:evenodd;"
d="M 134.1622,73.8200
135.1622,73.8200
135.1622,73.6200
134.1622,73.6200
Z" /> 
<path style="fill:#000000; fill-opacity:1.0000; stroke:none;fill-rule:evenodd;"
d="M 134.1522,74.4682
135.1522,74.4682
135.1522,74.2682
134.1522,74.2682
Z" /> 
<path style="fill:#000000; fill-opacity:1.0000; stroke:none;fill-rule:evenodd;"
d="M 128.8622,74.4700
129.8622,74.4700
129.8622,74.2700
128.8622,74.2700
Z" /> 
<path style="fill:#000000; fill-opacity:1.0000; stroke:none;fill-rule:evenodd;"
d="M 128.8622,73.8200
129.8622,73.8200
129.8622,73.6200
128.8622,73.6200
Z" /> 
<path style="fill:#000000; fill-opacity:1.0000; stroke:none;fill-rule:evenodd;"
d="M 128.8622,73.1700
129.8622,73.1700
129.8622,72.9700
128.8622,72.9700
Z" /> 
<path style="fill:#000000; fill-opacity:1.0000; stroke:none;fill-rule:evenodd;"
d="M 128.8622,72.5200
129.8622,72.5200
129.8622,72.3200
128.8622,72.3200
Z" /> 
<path style="fill:#000000; fill-opacity:1.0000; stroke:none;fill-rule:evenodd;"
d="M 128.8622,71.8700
129.8622,71.8700
129.8622,71.6700
128.8622,71.6700
Z" /> 
<path style="fill:#000000; fill-opacity:1.0000; stroke:none;fill-rule:evenodd;"
d="M 128.8622,71.2200
129.8622,71.2200
129.8622,71.0200
128.8622,71.0200
Z" /> 
<path style="fill:#000000; fill-opacity:1.0000; stroke:none;fill-rule:evenodd;"
d="M 128.8622,70.5700
129.8622,70.5700
129.8622,70.3700
128.8622,70.3700
Z" /> 
<path style="fill:#000000; fill-opacity:1.0000; stroke:none;fill-rule:evenodd;"
d="M 104.8722,92.2350
104.8722,90.5350
103.1722,90.5350
103.1722,92.2350
Z" /> 
</g>
<g style="fill:#000000; fill-opacity:1.0000; stroke:none;">
<circle cx="104.0222" cy="93.9250" r="0.8500" /> 
<circle cx="104.0222" cy="96.4650" r="0.8500" /> 
<path style="fill:#000000; fill-opacity:1.0000; stroke:none;fill-rule:evenodd;"
d="M 104.8122,64.5150
104.8122,62.8150
103.1122,62.8150
103.1122,64.5150
Z" /> 
<circle cx="103.9622" cy="66.2050" r="0.8500" /> 
<circle cx="103.9622" cy="68.7450" r="0.8500" /> 
<circle cx="103.9622" cy="71.2850" r="0.8500" /> 
<circle cx="103.9622" cy="73.8250" r="0.8500" /> 
<circle cx="103.9622" cy="76.3650" r="0.8500" /> 
<circle cx="103.9622" cy="78.9050" r="0.8500" /> 
<circle cx="103.9622" cy="81.4450" r="0.8500" /> 
<circle cx="103.9622" cy="83.9850" r="0.8500" /> 
<path style="fill:#000000; fill-opacity:1.0000; stroke:none;fill-rule:evenodd;"
d="M 117.8722,65.4150
117.8532,65.3193
117.7990,65.2382
117.7179,65.1840
117.6222,65.1650
116.8222,65.1650
116.7265,65.1840
116.6454,65.2382
116.5912,65.3193
116.5722,65.4150
116.5722,66.6650
116.5912,66.7607
116.6454,66.8418
116.7265,66.8960
116.8222,66.9150
117.6222,66.9150
117.7179,66.8960
117.7990,66.8418
117.8532,66.7607
117.8722,66.6650
Z" /> 
<path style="fill:#000000; fill-opacity:1.0000; stroke:none;fill-rule:evenodd;"
d="M 114.7722,65.4150
114.7532,65.3193
114.6990,65.2382
114.6179,65.1840
114.5222,65.1650
113.7222,65.1650
113.6265,65.1840
113.5454,65.2382
113.4912,65.3193
113.4722,65.4150
113.4722,66.6650
113.4912,66.7607
113.5454,66.8418
113.6265,66.8960
113.7222,66.9150
114.5222,66.9150
114.6179,66.8960
114.6990,66.8418
114.7532,66.7607
114.7722,66.6650
Z" /> 
<path style="fill:#000000; fill-opacity:1.0000; stroke:none;fill-rule:evenodd;"
d="M 132.3997,87.4600
132.3807,87.3643
132.3265,87.2832
132.2454,87.2290
132.1497,87.2100
131.4997,87.2100
131.4040,87.2290
131.3229,87.2832
131.2687,87.3643
131.2497,87.4600
131.2497,88.3600
131.2687,88.4557
131.3229,88.5368
131.4040,88.5910
131.4997,88.6100
132.1497,88.6100
132.2454,88.5910
132.3265,88.5368
132.3807,88.4557
132.3997,88.3600
Z" /> 
<path style="fill:#000000; fill-opacity:1.0000; stroke:none;fill-rule:evenodd;"
d="M 134.4497,87.4600
134.4307,87.3643
134.3765,87.2832
134.2954,87.2290
134.1997,87.2100
133.5497,87.2100
133.4540,87.2290
133.3729,87.2832
133.3187,87.3643
133.2997,87.4600
133.2997,88.3600
133.3187,88.4557
133.3729,88.5368
133.4540,88.5910
133.5497,88.6100
134.1997,88.6100
134.2954,88.5910
134.3765,88.5368
134.4307,88.4557
134.4497,88.3600
Z" /> 
<circle cx="128.7522" cy="64.0600" r="0.3000" /> 
</g>
<g style="fill:#000000; fill-opacity:1.0000; stroke:none;">
<circle cx="128.7522" cy="64.0600" r="0.3000" /> 
</g>
<g style="fill:none; 
stroke:#000000; stroke-width:0.8000; stroke-opacity:1; 
stroke-linecap:round; stroke-linejoin:round;">
<path d="M102.8201 93.9250
L104.0222 93.9250
" />
<path d="M100.1922 71.2850
L100.1922 91.2971
" />
<path d="M100.1922 91.2971
L102.8201 93.9250
" />
<path d="M144.5122 94.3800
L146.9522 91.9400
" />
<path d="M130.3922 94.3800
L144.5122 94.3800
" />
<path d="M121.1922 88.5100
L130.3922 94.3800
" />
<path d="M120.6522 87.7200
L121.1922 88.5100
" />
<path d="M120.6522 84.0600
L120.6522 87.7200
" />
<path d="M145.7122 98.9800
L152.7522 91.9400
" />
<path d="M122.2622 98.9800
L145.7122 98.9800
" />
<path d="M114.6672 91.3850
L122.2622 98.9800
" />
<path d="M104.0222 91.3850
L114.6672 91.3850
" />
</g>
<g style="fill:none; 
stroke:#000000; stroke-width:0.2000; stroke-opacity:1; 
stroke-linecap:round; stroke-linejoin:round;">
<path d="M135.8422 73.0700
L136.1325 73.0700
" />
</g>
<g style="fill:none; 
stroke:#000000; stroke-width:0.5000; stroke-opacity:1; 
stroke-linecap:round; stroke-linejoin:round;">
<path d="M137.2073 74.1449
L138.6722 75.6097
" />
</g>
<g style="fill:none; 
stroke:#000000; stroke-width:0.2000; stroke-opacity:1; 
stroke-linecap:round; stroke-linejoin:round;">
<path d="M136.1325 73.0700
L137.2073 74.1449
" />
<path d="M134.6622 73.0700
L135.8422 73.0700
" />
</g>
<g style="fill:none; 
stroke:#000000; stroke-width:0.3000; stroke-opacity:1; 
stroke-linecap:round; stroke-linejoin:round;">
<path d="M133.5822 67.4900
L134.6572 66.4150
" />
<path d="M133.5822 70.4700
L133.5822 67.4900
" />
</g>
<g style="fill:none; 
stroke:#000000; stroke-width:0.8000; stroke-opacity:1; 
stroke-linecap:round; stroke-linejoin:round;">
<path d="M135.9397 65.1325
L134.6572 66.4150
" />
</g>
<g style="fill:none; 
stroke:#000000; stroke-width:0.2000; stroke-opacity:1; 
stroke-linecap:round; stroke-linejoin:round;">
<path d="M138.0697 72.0075
L137.1822 71.1200
" />
<path d="M139.4797 72.0075
L138.0697 72.0075
" />
<path d="M134.6622 71.1200
L137.1822 71.1200
" />
<path d="M124.8522 69.3200
L123.0522 69.3200
" />
<path d="M125.1122 69.5800
L124.8522 69.3200
" />
</g>
<g style="fill:none; 
stroke:#000000; stroke-width:0.6000; stroke-opacity:1; 
stroke-linecap:round; stroke-linejoin:round;">
<path d="M123.0522 69.3200
L116.2222 69.3200
" />
</g>
<g style="fill:none; 
stroke:#000000; stroke-width:0.2000; stroke-opacity:1; 
stroke-linecap:round; stroke-linejoin:round;">
<path d="M126.6522 71.1200
L125.1122 69.5800
" />
<path d="M127.2822 73.7200
L126.7622 73.7200
" />
</g>
<g style="fill:none; 
stroke:#000000; stroke-width:0.5000; stroke-opacity:1; 
stroke-linecap:round; stroke-linejoin:round;">
<path d="M126.0822 74.4000
L124.2822 76.2000
" />
</g>
<g style="fill:none; 
stroke:#000000; stroke-width:0.2000; stroke-opacity:1; 
stroke-linecap:round; stroke-linejoin:round;">
<path d="M126.7622 73.7200
L126.0822 74.4000
" />
<path d="M128.0922 73.7200
L127.2822 73.7200
" />
<path d="M123.5472 71.2850
L122.6022 71.2850
" />
</g>
<g style="fill:none; 
stroke:#000000; stroke-width:0.8000; stroke-opacity:1; 
stroke-linecap:round; stroke-linejoin:round;">
<path d="M103.9622 71.2850
L122.6022 71.2850
" />
</g>
<g style="fill:none; 
stroke:#000000; stroke-width:0.2000; stroke-opacity:1; 
stroke-linecap:round; stroke-linejoin:round;">
<path d="M124.0322 71.7700
L123.5472 71.2850
" />
<path d="M124.7522 71.7700
L124.0322 71.7700
" />
<path d="M124.5572 73.8250
L123.4022 73.8250
" />
</g>
<g style="fill:none; 
stroke:#000000; stroke-width:0.6000; stroke-opacity:1; 
stroke-linecap:round; stroke-linejoin:round;">
<path d="M123.4022 73.8250
L103.9622 73.8250
" />
</g>
<g style="fill:none; 
stroke:#000000; stroke-width:0.2000; stroke-opacity:1; 
stroke-linecap:round; stroke-linejoin:round;">
<path d="M125.6522 72.7300
L124.5572 73.8250
" />
<path d="M126.3322 72.7300
L125.6522 72.7300
" />
<path d="M126.3322 72.7300
L125.9022 72.7300
" />
<path d="M128.2222 72.7300
L126.3322 72.7300
" />
</g>
<g style="fill:none; 
stroke:#000000; stroke-width:0.8000; stroke-opacity:1; 
stroke-linecap:round; stroke-linejoin:round;">
<path d="M100.1922 71.2850
L103.9622 71.2850
" />
<path d="M111.6172 104.0600
L104.0222 96.4650
" />
<path d="M120.6522 104.0600
L111.6172 104.0600
" />
<path d="M104.0372 84.0600
L103.9622 83.9850
" />
<path d="M120.6522 84.0600
L104.0372 84.0600
" />
<path d="M152.7522 91.9400
L155.4472 89.2450
" />
<path d="M155.4472 89.2450
L155.4472 84.0750
" />
<path d="M155.4472 84.0750
L153.0622 86.4600
" />
<path d="M159.6022 79.9200
L155.4472 84.0750
" />
<path d="M129.4447 86.6725
L130.6822 87.9100
" />
<path d="M130.6822 87.9100
L131.8247 87.9100
" />
<path d="M129.4447 84.7200
L129.4447 86.6725
" />
<path d="M135.0847 91.1700
L131.8247 87.9100
" />
<path d="M142.8222 87.8900
L139.5422 91.1700
" />
<path d="M142.8222 86.4600
L142.8222 87.8900
" />
<path d="M139.5422 91.1700
L135.0847 91.1700
" />
<path d="M133.8747 83.3475
L135.5722 81.6500
" />
<path d="M133.8747 87.9100
L133.8747 83.3475
" />
<path d="M153.0622 86.4600
L142.8222 86.4600
" />
<path d="M159.6022 60.9600
L159.6022 79.9200
" />
<path d="M140.3822 83.3600
L138.6722 81.6500
" />
<path d="M142.8222 83.3600
L140.3822 83.3600
" />
</g>
<g style="fill:none; 
stroke:#000000; stroke-width:0.5000; stroke-opacity:1; 
stroke-linecap:round; stroke-linejoin:round;">
<path d="M138.6722 75.6097
L138.6722 81.6500
" />
</g>
<g style="fill:none; 
stroke:#000000; stroke-width:0.2000; stroke-opacity:1; 
stroke-linecap:round; stroke-linejoin:round;">
<path d="M134.6522 74.3682
L134.6522 75.4500
" />
<path d="M134.6522 74.3682
L135.7740 74.3682
" />
<path d="M134.6522 74.3682
L135.4104 74.3682
" />
<path d="M135.4104 74.3682
L135.4104 79.2593
" />
</g>
<g style="fill:none; 
stroke:#000000; stroke-width:0.8000; stroke-opacity:1; 
stroke-linecap:round; stroke-linejoin:round;">
<path d="M103.9622 66.2050
L106.2672 66.2050
" />
<path d="M106.2672 66.2050
L111.5122 60.9600
" />
<path d="M111.5122 60.9600
L116.3022 60.9600
" />
<path d="M107.0272 68.7450
L109.7322 66.0400
" />
<path d="M109.7322 66.0400
L114.1222 66.0400
" />
<path d="M103.9622 68.7450
L107.0272 68.7450
" />
<path d="M122.1022 60.9600
L159.6022 60.9600
" />
<path d="M120.2222 66.0400
L120.2222 62.8400
" />
<path d="M120.2222 62.8400
L122.1022 60.9600
" />
<path d="M117.2222 66.0400
L120.2222 66.0400
" />
<path d="M149.0447 65.1325
L140.9922 65.1325
" />
<path d="M149.6822 65.7700
L149.0447 65.1325
" />
<path d="M149.6822 68.5800
L149.6822 65.7700
" />
<path d="M145.9522 77.6100
L149.6822 73.8800
" />
<path d="M149.6822 73.8800
L149.6822 71.1200
" />
<path d="M141.1122 77.6100
L145.9522 77.6100
" />
<path d="M140.9422 72.0075
L139.4797 72.0075
" />
<path d="M141.1122 72.1775
L140.9422 72.0075
" />
<path d="M141.1122 74.5100
L141.1122 72.1775
" />
<path d="M140.9922 65.1325
L135.9397 65.1325
" />
</g>
<g style="fill:none; 
stroke:#000000; stroke-width:0.3000; stroke-opacity:1; 
stroke-linecap:round; stroke-linejoin:round;">
<path d="M130.3522 75.4500
L129.1572 76.4050
" />
<path d="M130.4722 74.3700
L130.3522 75.4500
" />
</g>
<g style="fill:none; 
stroke:#000000; stroke-width:0.5000; stroke-opacity:1; 
stroke-linecap:round; stroke-linejoin:round;">
<path d="M129.1572 76.4050
L129.3622 76.2000
" />
<path d="M126.6572 78.9050
L129.1572 76.4050
" />
</g>
<g style="fill:none; 
stroke:#000000; stroke-width:0.2000; stroke-opacity:1; 
stroke-linecap:round; stroke-linejoin:round;">
<path d="M129.3622 74.3700
L130.4722 74.3700
" />
</g>
<g style="fill:none; 
stroke:#000000; stroke-width:0.6000; stroke-opacity:1; 
stroke-linecap:round; stroke-linejoin:round;">
<path d="M114.1222 67.2200
L114.1222 66.0400
" />
<path d="M116.2222 69.3200
L114.4122 67.5100
" />
<path d="M114.4122 67.5100
L114.1222 67.2200
" />
</g>
<g style="fill:none; 
stroke:#000000; stroke-width:0.3000; stroke-opacity:1; 
stroke-linecap:round; stroke-linejoin:round;">
<path d="M134.6622 70.4700
L133.5822 70.4700
" />
</g>
<g style="fill:none; 
stroke:#000000; stroke-width:0.2000; stroke-opacity:1; 
stroke-linecap:round; stroke-linejoin:round;">
<path d="M132.8422 73.7200
L132.8422 75.1953
" />
</g>
<g style="fill:none; 
stroke:#000000; stroke-width:0.5000; stroke-opacity:1; 
stroke-linecap:round; stroke-linejoin:round;">
<path d="M129.1222 81.6900
L132.7948 75.2426
" />
</g>
<g style="fill:none; 
stroke:#000000; stroke-width:0.2000; stroke-opacity:1; 
stroke-linecap:round; stroke-linejoin:round;">
<path d="M132.8422 75.1953
L132.7948 75.2426
" />
<path d="M134.6622 73.7200
L132.8422 73.7200
" />
<path d="M134.6622 73.7200
L133.7883 73.7200
" />
</g>
<g style="fill:none; 
stroke:#000000; stroke-width:0.5000; stroke-opacity:1; 
stroke-linecap:round; stroke-linejoin:round;">
<path d="M113.5584 81.6900
L129.1222 81.6900
" />
<path d="M103.9622 81.4450
L113.5584 81.6900
" />
</g>
<g style="fill:none; 
stroke:#000000; stroke-width:0.2000; stroke-opacity:1; 
stroke-linecap:round; stroke-linejoin:round;">
<path d="M128.5622 73.0700
L128.2222 72.7300
" />
<path d="M129.3622 73.0700
L128.5622 73.0700
" />
<path d="M127.3222 71.1200
L126.6522 71.1200
" />
<path d="M127.3222 71.1200
L127.2022 71.1200
" />
<path d="M127.4522 71.1200
L127.3222 71.1200
" />
<path d="M125.2122 71.7700
L129.3622 71.7700
" />
<path d="M125.2122 71.7700
L124.7522 71.7700
" />
<path d="M129.3622 73.7200
L128.0922 73.7200
" />
<path d="M127.7022 71.1200
L127.4522 71.1200
" />
<path d="M129.3622 71.1200
L127.7022 71.1200
" />
<path d="M127.2022 71.1200
L127.0822 71.1200
" />
<path d="M127.0522 71.1200
L126.9522 71.1200
" />
<path d="M127.0822 71.1200
L127.0522 71.1200
" />
</g>
<g style="fill:none; 
stroke:#000000; stroke-width:0.8000; stroke-opacity:1; 
stroke-linecap:round; stroke-linejoin:round;">
<path d="M124.2822 66.0400
L117.2222 66.0400
" />
</g>
<g style="fill:none; 
stroke:#000000; stroke-width:0.3000; stroke-opacity:1; 
stroke-linecap:round; stroke-linejoin:round;">
<path d="M129.3622 70.4700
L128.7122 70.4700
" />
</g>
<g style="fill:none; 
stroke:#000000; stroke-width:0.8000; stroke-opacity:1; 
stroke-linecap:round; stroke-linejoin:round;">
<path d="M122.1022 60.9600
L124.2822 60.9600
" />
</g>
<g style="fill:none; 
stroke:#000000; stroke-width:0.3000; stroke-opacity:1; 
stroke-linecap:round; stroke-linejoin:round;">
<path d="M128.7122 70.4700
L124.2822 66.0400
" />
</g>
<g style="fill:none; 
stroke:#000000; stroke-width:0.5000; stroke-opacity:1; 
stroke-linecap:round; stroke-linejoin:round;">
<path d="M103.9622 78.9050
L126.6572 78.9050
" />
<path d="M103.9622 76.3650
L113.9572 76.3650
" />
<path d="M113.9572 76.3650
L124.1172 76.3650
" />
<path d="M124.1172 76.3650
L124.2822 76.2000
" />
<path style="fill:#000000; fill-opacity:1.0000; stroke:none;fill-rule:evenodd;"
d="M 124.4597,61.8802
124.4139,61.9330
124.4027,61.9845
124.4027,62.1767
124.4019,62.1875
124.4019,62.1876
124.3598,62.3252
124.3598,62.3252
124.3016,62.4135
124.2806,62.4454
124.2806,62.4454
124.1708,62.5384
124.1708,62.5384
124.1708,62.5384
124.0392,62.5967
123.8965,62.6156
123.8857,62.6147
122.0932,62.3159
122.0239,62.3243
121.9852,62.3505
121.1590,63.1767
121.1255,63.2380
121.1227,63.2644
121.1227,65.0155
121.1424,65.0825
121.1952,65.1283
121.2467,65.1395
124.3709,65.1395
124.5449,65.1741
124.5449,65.1741
124.7087,65.2420
124.7088,65.2420
124.8562,65.3405
124.8562,65.3405
124.9817,65.4660
124.9817,65.4660
125.0802,65.6134
125.0802,65.6135
125.1481,65.7773
125.1481,65.7773
125.1827,65.9513
125.1827,65.9692
125.2024,66.0362
125.2190,66.0569
128.9453,69.7832
129.0067,69.8167
129.0330,69.8195
129.4263,69.8195
129.5519,69.8445
129.5519,69.8445
129.5641,69.8496
129.5774,69.8551
129.6249,69.8645
129.8622,69.8645
129.9341,69.8696
130.0722,69.9102
130.1932,69.9880
130.1932,69.9880
130.2875,70.0967
130.2875,70.0967
130.3472,70.2276
130.3472,70.2276
130.3677,70.3700
130.3677,70.5700
130.3626,70.6419
130.3275,70.7614
130.3275,70.8313
130.3337,70.8479
130.3472,70.8776
130.3472,70.8776
130.3677,71.0200
130.3677,71.2200
130.3626,71.2919
130.3275,71.4114
130.3275,71.4813
130.3337,71.4979
130.3472,71.5276
130.3472,71.5276
130.3677,71.6700
130.3677,71.8700
130.3626,71.9419
130.3275,72.0614
130.3275,72.1313
130.3337,72.1479
130.3472,72.1776
130.3472,72.1776
130.3677,72.3200
130.3677,72.5200
130.3626,72.5919
130.3275,72.7114
130.3275,72.7813
130.3337,72.7979
130.3472,72.8276
130.3472,72.8276
130.3677,72.9700
130.3677,73.1700
130.3626,73.2419
130.3275,73.3614
130.3275,73.4313
130.3337,73.4479
130.3472,73.4776
130.3472,73.4776
130.3663,73.6103
130.3953,73.6738
130.4541,73.7116
130.4753,73.7158
130.4804,73.7164
130.4804,73.7164
130.5568,73.7249
130.6077,73.7306
130.7299,73.7693
130.7299,73.7693
130.7299,73.7693
130.8310,73.8250
130.8421,73.8311
130.9401,73.9136
130.9401,73.9136
131.0202,74.0137
131.0792,74.1274
131.1148,74.2505
131.1240,74.3568
131.1258,74.3782
131.0904,74.6964
131.0065,75.4522
131.0064,75.4529
130.9988,75.5209
130.9988,75.5210
130.9988,75.5210
130.9916,75.5855
130.9916,75.5857
130.9916,75.5858
130.9817,75.6170
130.9726,75.6457
130.9529,75.7077
130.9529,75.7077
130.9529,75.7077
130.9528,75.7079
130.9528,75.7080
130.9217,75.7644
130.9217,75.7645
130.9217,75.7644
130.9216,75.7644
130.8911,75.8199
130.8911,75.8199
130.8911,75.8199
130.8909,75.8202
130.8909,75.8202
130.8909,75.8202
130.8909,75.8202
130.8489,75.8701
130.8488,75.8701
130.8086,75.9179
130.8084,75.9182
130.8053,75.9206
130.7574,75.9589
130.7573,75.9590
130.7573,75.9589
130.7041,76.0015
130.7035,76.0020
130.0595,76.5167
130.0311,76.5507
130.0307,76.5504
130.0278,76.5547
130.0275,76.5551
130.0273,76.5555
130.0273,76.5555
130.0273,76.5555
129.9452,76.6784
129.9451,76.6784
129.9451,76.6784
129.7402,76.8834
127.1356,79.4880
127.1241,79.4956
127.0619,79.5372
127.0127,79.5701
127.0127,79.5701
127.0127,79.5701
127.0127,79.5701
126.9819,79.5828
126.8761,79.6267
126.8761,79.6267
126.8761,79.6267
126.7311,79.6555
126.7311,79.6555
126.7311,79.6555
126.5833,79.6555
105.1499,79.6555
105.0829,79.6752
105.0483,79.7084
105.0007,79.7764
104.8336,79.9435
104.8336,79.9435
104.6480,80.0734
104.6044,80.1280
104.5972,80.1975
104.6287,80.2599
104.6480,80.2766
104.8336,80.4065
105.0007,80.5736
105.0007,80.5736
105.0697,80.6722
105.1243,80.7158
105.1682,80.7250
113.5664,80.9395
113.5695,80.9395
128.6139,80.9395
128.6810,80.9198
128.7217,80.8769
128.8944,80.5736
129.9332,78.7500
132.1793,74.8069
132.1793,74.8069
132.2114,74.7699
132.2404,74.7064
132.2417,74.6887
132.2417,73.6409
132.2417,73.6409
132.2826,73.4882
132.3059,73.4479
132.3617,73.3513
132.3617,73.3513
132.4735,73.2395
132.4735,73.2395
132.6104,73.1604
132.6104,73.1604
132.6104,73.1604
132.7631,73.1195
132.7631,73.1195
133.5327,73.1195
133.5997,73.0998
133.6455,73.0470
133.6567,72.9955
133.6567,72.9700
133.6567,72.9700
133.6618,72.8981
133.6691,72.8734
133.6890,72.8055
133.6969,72.7786
133.6969,72.7087
133.6907,72.6921
133.6781,72.6643
133.6772,72.6624
133.6567,72.5200
133.6567,72.3200
133.6618,72.2481
133.6969,72.1286
133.6969,72.0587
133.6907,72.0421
133.6901,72.0408
133.6772,72.0124
133.6567,71.8700
133.6567,71.6700
133.6618,71.5981
133.6969,71.4786
133.6969,71.4087
133.6907,71.3921
133.6810,71.3707
133.6772,71.3624
133.6577,71.2269
133.6287,71.1633
133.5699,71.1255
133.5349,71.1205
133.5181,71.1205
133.4336,71.1037
133.3925,71.0955
133.2741,71.0465
133.1675,70.9753
133.0769,70.8847
133.0057,70.7781
132.9567,70.6597
132.9419,70.5855
132.9317,70.5341
132.9317,67.4259
132.9567,67.3003
132.9567,67.3003
132.9567,67.3003
132.9647,67.2809
132.9959,67.2055
133.0057,67.1819
133.0057,67.1819
133.0135,67.1702
133.0769,67.0753
133.0769,67.0753
133.7204,66.4319
133.7539,66.3705
133.7567,66.3442
133.7567,66.3263
133.7567,66.3263
133.7777,66.2205
133.7913,66.1523
133.8592,65.9885
133.8592,65.9885
133.8592,65.9884
133.9577,65.8410
133.9577,65.8410
135.3657,64.4330
135.3657,64.4330
135.4247,64.3936
135.4247,64.3936
135.5132,64.3345
135.5132,64.3345
135.5951,64.3005
135.5951,64.3005
135.6770,64.2666
135.6770,64.2666
135.8510,64.2320
135.8510,64.2320
135.8510,64.2320
139.9679,64.2320
140.0349,64.2123
140.0448,64.2053
140.0485,64.2023
140.0485,64.2023
140.1979,64.1102
140.3644,64.0550
140.3644,64.0550
140.4672,64.0445
141.5172,64.0445
141.5172,64.0445
141.6200,64.0550
141.6200,64.0550
141.7865,64.1102
141.7865,64.1102
141.9359,64.2023
141.9396,64.2053
142.0044,64.2314
142.0165,64.2320
149.1334,64.2320
149.3074,64.2666
149.3074,64.2666
149.3893,64.3005
149.3893,64.3005
149.4712,64.3345
149.5597,64.3936
149.5597,64.3936
149.6187,64.4330
150.3817,65.1960
150.3817,65.1960
150.4124,65.2420
150.4124,65.2420
150.4802,65.3435
150.4802,65.3435
150.5016,65.3952
150.5016,65.3952
150.5481,65.5073
150.5727,65.6310
150.5727,65.6310
150.5827,65.6813
150.5827,68.1112
150.5973,68.1697
150.6110,68.1953
150.6381,68.2845
150.6682,68.3839
150.6875,68.5800
150.6682,68.7761
150.6110,68.9647
150.5181,69.1385
150.5181,69.1385
150.3931,69.2909
150.2407,69.4159
150.2407,69.4159
150.0669,69.5088
150.0669,69.5088
150.0669,69.5088
149.8783,69.5660
149.6822,69.5853
149.4861,69.5660
149.2975,69.5088
149.1237,69.4159
148.9713,69.2909
148.8463,69.1385
148.7534,68.9647
148.6962,68.7761
148.6769,68.5800
148.6962,68.3839
148.7534,68.1953
148.7671,68.1697
148.7817,68.1112
148.7817,67.4575
142.2172,67.4575
142.2172,67.5950
142.2067,67.6977
142.1516,67.8641
142.1516,67.8641
142.0595,68.0133
141.9355,68.1373
141.7863,68.2294
141.7863,68.2294
141.6199,68.2845
141.6199,68.2845
141.5172,68.2950
141.2422,68.2950
141.2422,68.2950
141.2422,67.4575
140.7422,67.4575
140.7422,68.2950
140.4672,68.2950
140.4672,68.2950
140.3645,68.2845
140.1981,68.2294
140.1981,68.2294
140.0489,68.1373
139.9249,68.0133
139.8328,67.8641
139.8328,67.8641
139.7777,67.6977
139.7777,67.6977
139.7672,67.5950
139.7672,67.5950
139.7672,67.4575
140.7422,67.4575
141.2422,67.4575
142.2172,67.4575
148.7817,67.4575
148.7817,66.1944
148.7620,66.1273
148.7454,66.1067
148.7080,66.0693
148.6467,66.0358
148.6203,66.0330
142.0165,66.0330
141.9495,66.0527
141.9396,66.0597
141.9359,66.0627
141.9359,66.0627
141.9326,66.0647
141.9325,66.0648
141.9308,66.0667
141.9302,66.0672
141.9303,66.0673
141.8858,66.1167
141.8746,66.1857
141.9024,66.2497
141.9325,66.2758
141.9355,66.2777
141.9355,66.2777
142.0595,66.4017
142.1516,66.5509
142.1516,66.5509
142.2067,66.7173
142.2067,66.7173
142.2172,66.8200
142.2172,66.9575
139.7672,66.9575
139.7672,66.8200
139.7672,66.8200
139.7777,66.7173
139.8328,66.5509
139.8328,66.5509
139.9249,66.4017
140.0489,66.2777
140.0489,66.2777
140.0519,66.2758
140.0535,66.2740
140.0545,66.2732
140.0544,66.2730
140.0986,66.2239
140.1098,66.1549
140.0820,66.0908
140.0519,66.0648
140.0485,66.0627
140.0485,66.0627
140.0448,66.0597
139.9800,66.0336
139.9679,66.0330
136.3641,66.0330
136.2970,66.0527
136.2764,66.0693
135.2312,67.1145
135.2312,67.1145
135.0838,67.2130
135.0837,67.2130
135.0837,67.2130
134.9199,67.2809
134.7459,67.3155
134.7459,67.3155
134.7459,67.3155
134.7280,67.3155
134.6610,67.3352
134.6403,67.3518
134.2690,67.7231
134.2355,67.7844
134.2327,67.8108
134.2327,69.6955
134.2524,69.7625
134.3052,69.8083
134.3567,69.8195
134.7263,69.8195
134.8519,69.8445
134.8519,69.8445
134.8641,69.8496
134.8774,69.8551
134.9249,69.8645
135.1622,69.8645
135.2341,69.8696
135.3722,69.9102
135.4932,69.9880
135.4932,69.9880
135.5874,70.0967
135.5875,70.0967
135.6472,70.2276
135.6472,70.2276
135.6677,70.3700
135.6677,70.3955
135.6874,70.4625
135.7402,70.5083
135.7917,70.5195
137.0955,70.5195
137.0955,70.5195
137.1031,70.5195
137.2613,70.5195
137.3156,70.5341
137.4140,70.5604
137.4140,70.5604
137.5509,70.6395
137.5509,70.6395
138.2821,71.3707
138.3434,71.4042
138.3698,71.4070
138.7553,71.4070
138.8224,71.3873
138.8430,71.3707
138.9057,71.3080
138.9057,71.3080
138.9057,71.3080
139.0531,71.2095
139.0532,71.2095
139.2170,71.1416
139.2170,71.1416
139.3910,71.1070
139.3910,71.1070
139.9179,71.1070
139.9849,71.0873
139.9948,71.0803
139.9985,71.0773
139.9997,71.0766
140.0019,71.0752
140.0037,71.0732
140.0042,71.0728
140.0041,71.0727
140.0486,71.0233
140.0598,70.9543
140.0320,70.8903
140.0019,70.8642
139.9989,70.8623
139.8749,70.7383
139.7828,70.5891
139.7828,70.5891
139.7277,70.4227
139.7277,70.4227
139.7172,70.3200
139.7172,70.3200
139.7172,70.1825
142.1672,70.1825
142.1672,70.3200
142.1567,70.4227
142.1016,70.5891
142.1016,70.5891
142.0095,70.7383
141.8855,70.8623
141.8855,70.8623
141.8825,70.8642
141.8809,70.8660
141.8799,70.8668
141.8800,70.8670
141.8358,70.9161
141.8246,70.9851
141.8524,71.0492
141.8825,71.0752
141.8859,71.0773
141.8859,71.0773
142.0099,71.2013
142.1020,71.3507
142.1020,71.3507
142.1142,71.3873
142.1572,71.5172
142.1572,71.5172
142.1572,71.5172
142.1677,71.6200
142.1677,72.3950
142.1677,72.3950
142.1572,72.4978
142.1572,72.4978
142.1207,72.6080
142.1020,72.6643
142.0312,72.7792
142.0127,72.8443
142.0127,73.3289
142.0324,73.3960
142.0716,73.4345
142.1415,73.4776
142.2059,73.5173
142.3299,73.6413
142.4220,73.7907
142.4220,73.7907
142.4317,73.8200
142.4772,73.9572
142.4772,73.9572
142.4772,73.9572
142.4877,74.0600
142.4877,74.9600
142.4877,74.9600
142.4772,75.0628
142.4772,75.0628
142.4220,75.2293
142.4220,75.2293
142.4066,75.2543
142.3299,75.3787
142.2059,75.5027
142.0565,75.5948
141.8900,75.6500
141.7872,75.6605
140.4372,75.6605
140.3344,75.6500
140.1679,75.5948
140.0185,75.5027
139.8945,75.3787
139.8024,75.2293
139.7472,75.0628
139.7367,74.9600
139.7367,74.0600
139.7398,74.0300
139.7472,73.9572
139.7472,73.9572
139.7688,73.8919
139.8024,73.7907
139.8945,73.6413
140.0185,73.5173
140.1528,73.4345
140.1995,73.3825
140.2117,73.3289
140.2117,73.1384
140.1920,73.0714
140.1528,73.0329
140.1479,73.0298
140.1479,73.0298
139.9985,72.9377
139.9985,72.9377
139.9948,72.9347
139.9300,72.9086
139.9179,72.9080
139.3910,72.9080
139.3910,72.9080
139.3330,72.8965
139.2170,72.8734
139.2170,72.8734
139.2170,72.8734
139.0532,72.8055
138.9057,72.7070
138.8430,72.6443
138.7817,72.6108
138.7553,72.6080
138.1564,72.6080
138.1564,72.6080
138.1488,72.6080
137.9906,72.6080
137.9906,72.6080
137.8379,72.5671
137.7878,72.5381
137.7010,72.4880
137.5892,72.3762
137.5892,72.3762
137.5790,72.3660
137.5790,72.3660
136.9698,71.7568
136.9085,71.7233
136.8821,71.7205
135.7917,71.7205
135.7247,71.7402
135.6789,71.7930
135.6677,71.8445
135.6677,71.8700
135.6626,71.9419
135.6275,72.0614
135.6275,72.1313
135.6337,72.1479
135.6472,72.1776
135.6472,72.1776
135.6677,72.3200
135.6677,72.3455
135.6874,72.4125
135.7402,72.4583
135.7917,72.4695
136.0458,72.4695
136.0458,72.4695
136.0534,72.4695
136.2115,72.4695
136.2806,72.4880
136.3642,72.5104
136.3642,72.5104
136.5012,72.5895
136.5012,72.5895
137.2856,73.3739
137.3470,73.4074
137.3491,73.4079
137.4262,73.4232
137.4262,73.4232
137.5628,73.4798
137.5628,73.4798
137.6249,73.5213
137.6857,73.5619
137.6857,73.5619
137.6857,73.5619
137.6857,73.5619
139.2552,75.1313
139.2552,75.1313
139.2787,75.1666
139.2881,75.1807
139.3128,75.2176
139.3373,75.2543
139.3939,75.3908
139.3939,75.3908
139.4227,75.5358
139.4227,80.2902
139.4424,80.3572
139.4816,80.3957
139.5409,80.4323
139.6649,80.5563
139.7570,80.7057
139.7570,80.7057
139.7774,80.7672
139.8122,80.8722
139.8122,80.8722
139.8122,80.8722
139.8227,80.9750
139.8227,81.4756
139.8424,81.5427
139.8590,81.5633
140.7189,82.4232
140.7802,82.4567
140.8066,82.4595
141.5850,82.4595
141.6520,82.4398
141.6727,82.4232
141.7285,82.3673
141.7285,82.3673
141.8390,82.2992
141.8779,82.2752
141.8779,82.2752
141.9421,82.2539
142.0444,82.2200
142.0444,82.2200
142.1472,82.2095
143.4972,82.2095
143.4972,82.2095
143.6000,82.2200
143.6000,82.2200
143.7665,82.2752
143.7665,82.2752
143.9159,82.3673
144.0399,82.4913
144.1320,82.6407
144.1320,82.6407
144.1411,82.6680
144.1872,82.8072
144.1872,82.8072
144.1872,82.8072
144.1977,82.9100
144.1977,83.8100
144.1977,83.8100
144.1872,83.9128
144.1872,83.9128
144.1320,84.0793
144.1320,84.0793
144.1240,84.0923
144.0399,84.2287
143.9159,84.3527
143.7665,84.4448
143.6000,84.5000
143.4972,84.5105
142.1472,84.5105
142.0444,84.5000
141.8779,84.4448
141.7285,84.3527
141.6727,84.2968
141.6113,84.2633
141.5850,84.2605
140.2935,84.2605
140.2935,84.2605
140.1195,84.2259
140.0376,84.1920
139.9557,84.1580
139.8900,84.1141
139.8572,84.0922
139.8379,84.0793
139.8082,84.0595
138.8105,83.0618
138.7492,83.0283
138.7228,83.0255
138.2222,83.0255
138.2222,83.0255
138.1194,83.0150
137.9529,82.9598
137.8035,82.8677
137.6795,82.7437
137.5874,82.5943
137.5322,82.4278
137.5217,82.3250
137.5217,80.9750
137.5253,80.9395
137.5322,80.8722
137.5322,80.8722
137.5874,80.7057
137.6795,80.5563
137.8035,80.4323
137.8035,80.4323
137.8628,80.3957
137.9095,80.3438
137.9217,80.2902
137.9217,75.9720
137.9020,75.9049
137.8854,75.8843
136.6244,74.6233
136.6244,74.6233
136.5422,74.5004
136.4857,74.3638
136.4703,74.2867
136.4379,74.2248
136.4365,74.2232
135.9200,73.7068
135.8587,73.6733
135.8324,73.6705
135.7917,73.6705
135.7247,73.6902
135.6789,73.7430
135.6677,73.7945
135.6677,73.8200
135.6626,73.8919
135.6237,74.0244
135.6237,74.0943
135.6298,74.1108
135.6367,74.1259
135.6367,74.1259
135.6572,74.2682
135.6572,74.4682
135.6521,74.5401
135.6116,74.6780
135.5339,74.7989
135.4252,74.8930
135.4252,74.8930
135.2945,74.9528
135.2945,74.9528
135.1522,74.9732
135.1522,74.9732
134.1522,74.9732
134.1522,74.9732
134.0803,74.9681
133.9424,74.9276
133.8215,74.8499
133.7274,74.7412
133.7274,74.7412
133.6795,74.6364
133.6337,74.5836
133.5667,74.5639
133.4997,74.5836
133.4539,74.6364
133.4427,74.6879
133.4427,74.8309
133.4558,74.8864
133.4991,74.9729
133.4991,74.9729
133.5382,75.1155
133.5382,75.1155
133.5487,75.2629
133.5487,75.2629
133.5303,75.4096
133.5303,75.4096
133.4882,75.5358
133.4836,75.5499
132.8246,76.7067
129.8014,82.0139
129.7946,82.0278
129.7873,82.0455
129.7635,82.0810
129.7589,82.0885
129.7377,82.1257
129.7252,82.1402
129.7158,82.1525
129.7052,82.1684
129.7052,82.1684
129.7052,82.1684
129.6749,82.1987
129.6689,82.2051
129.6409,82.2374
129.6409,82.2374
129.6409,82.2374
129.6258,82.2492
129.6142,82.2594
129.6006,82.2730
129.6006,82.2730
129.5651,82.2967
129.5579,82.3019
129.5241,82.3281
129.5241,82.3281
129.5241,82.3281
129.5070,82.3367
129.4936,82.3444
129.4777,82.3551
129.4382,82.3714
129.4302,82.3751
129.3919,82.3942
129.3741,82.3991
129.3735,82.3993
129.3588,82.4043
129.3411,82.4117
129.2992,82.4200
129.2906,82.4220
129.2494,82.4333
129.2477,82.4334
129.2303,82.4347
129.2149,82.4368
129.2056,82.4386
129.1961,82.4405
129.1533,82.4405
129.1445,82.4408
129.1363,82.4414
129.1019,82.4439
129.1019,82.4439
129.1019,82.4439
129.0829,82.4415
129.0674,82.4405
122.1472,82.4405
122.0801,82.4602
122.0344,82.5130
122.0244,82.5821
122.0534,82.6457
122.0595,82.6522
122.0597,82.6525
122.1460,82.7677
122.1460,82.7677
122.1963,82.9025
122.2027,82.9621
122.2027,82.9621
122.2027,82.9621
122.2027,85.1579
122.2027,85.1579
122.1963,85.2175
122.1460,85.3523
122.1460,85.3523
122.0597,85.4675
122.0597,85.4675
121.9445,85.5538
121.9445,85.5538
121.9292,85.5595
121.8097,85.6041
121.7501,85.6105
121.6767,85.6105
121.6097,85.6302
121.5639,85.6830
121.5527,85.7345
121.5527,87.4033
121.5724,87.4703
121.5743,87.4733
121.8174,87.8289
121.8531,87.8635
129.5132,92.7510
130.5981,93.4432
130.6245,93.4600
130.6912,93.4795
144.0878,93.4795
144.1549,93.4598
144.1755,93.4432
144.6154,93.0033
144.6489,92.9420
144.6517,92.9156
144.6517,90.7233
144.6517,90.7233
144.6525,90.7125
144.6946,90.5748
144.7738,90.4546
144.7738,90.4546
144.8836,90.3616
145.0152,90.3033
145.0152,90.3033
145.1578,90.2844
145.1579,90.2844
145.1687,90.2853
145.1687,90.2853
146.7749,90.5530
148.8713,90.9024
148.8713,90.9024
148.8713,90.9024
148.9674,90.9324
149.0876,91.0116
149.0876,91.0116
149.0876,91.0116
149.1018,91.0284
149.1806,91.1214
149.2389,91.2530
149.2389,91.2530
149.2527,91.3527
149.2527,91.3527
149.2527,92.5273
149.2389,92.6270
149.2389,92.6270
149.2389,92.6270
149.2160,92.6788
149.1806,92.7586
149.0876,92.8684
149.0876,92.8684
148.9674,92.9476
148.9674,92.9476
148.8713,92.9776
146.8907,93.3077
146.8278,93.3381
146.8234,93.3423
145.0862,95.0795
145.0272,95.1189
145.0272,95.1189
144.9465,95.1728
144.9387,95.1780
144.8568,95.2120
144.8568,95.2120
144.8568,95.2120
144.8382,95.2196
144.7749,95.2459
144.6026,95.2802
144.6009,95.2805
144.6009,95.2805
144.6009,95.2805
144.6009,95.2805
130.4030,95.2805
130.4004,95.2805
130.3226,95.2822
130.3226,95.2822
130.3226,95.2822
130.3225,95.2822
130.3165,95.2817
130.3165,95.2818
130.3096,95.2811
130.3096,95.2811
130.3035,95.2805
130.3035,95.2805
130.2271,95.2653
130.2247,95.2648
130.1479,95.2512
130.1479,95.2512
130.1420,95.2496
130.1420,95.2497
130.1354,95.2477
130.1354,95.2477
130.1295,95.2459
130.1295,95.2459
130.0575,95.2161
130.0552,95.2151
129.9826,95.1868
129.9826,95.1868
129.9772,95.1841
129.9772,95.1841
129.9710,95.1809
129.9710,95.1809
129.9657,95.1780
129.9657,95.1780
129.9008,95.1347
129.8987,95.1333
120.7877,89.3201
120.7783,89.3146
120.7741,89.3125
120.7741,89.3125
120.7043,89.2669
120.7033,89.2662
120.6331,89.2214
120.6331,89.2214
120.6294,89.2185
120.6293,89.2185
120.6293,89.2185
120.6292,89.2184
120.6256,89.2155
120.6256,89.2155
120.5658,89.1570
120.5653,89.1565
120.5050,89.0987
120.5050,89.0987
120.5020,89.0951
120.5019,89.0951
120.5019,89.0950
120.5018,89.0950
120.4988,89.0914
120.4988,89.0914
120.4518,89.0226
120.4511,89.0216
120.4034,88.9533
120.4034,88.9533
120.4011,88.9492
120.3953,88.9400
119.9622,88.3063
119.9557,88.2976
119.9527,88.2940
119.9064,88.2248
119.9058,88.2237
119.8587,88.1549
119.8587,88.1549
119.8565,88.1509
119.8564,88.1508
119.8564,88.1507
119.8564,88.1507
119.8542,88.1466
119.8542,88.1465
119.8223,88.0695
119.8218,88.0684
119.7891,87.9918
119.7891,87.9918
119.7877,87.9873
119.7877,87.9873
119.7877,87.9872
119.7877,87.9871
119.7863,87.9827
119.7863,87.9827
119.7700,87.9008
119.7698,87.9000
119.7527,87.8182
119.7527,87.8182
119.7522,87.8135
119.7522,87.8135
119.7522,87.8134
119.7522,87.8133
119.7517,87.8087
119.7517,87.8087
119.7517,87.7254
119.7517,87.7241
119.7508,87.6408
119.7508,87.6408
119.7512,87.6362
119.7517,87.6253
119.7517,85.7345
119.7320,85.6675
119.6792,85.6217
119.6277,85.6105
119.5543,85.6105
119.5543,85.6105
119.4947,85.6041
119.3599,85.5538
119.2447,85.4675
119.1584,85.3523
119.1081,85.2175
119.1017,85.1579
119.1017,85.0845
119.0820,85.0175
119.0292,84.9717
118.9777,84.9605
104.9480,84.9605
104.8809,84.9802
104.8603,84.9968
104.8336,85.0235
104.7465,85.0845
104.6400,85.1590
104.6400,85.1590
104.6400,85.1590
104.4259,85.2589
104.1976,85.3201
104.0093,85.3365
103.9622,85.3407
103.9622,85.3407
103.9622,85.3407
103.9230,85.3372
103.7268,85.3201
103.4985,85.2589
103.2844,85.1590
103.0908,85.0235
102.9237,84.8564
102.7882,84.6628
102.6883,84.4487
102.6271,84.2204
102.6065,83.9850
102.6271,83.7496
102.6883,83.5213
102.7882,83.3072
102.8220,83.2588
102.9237,83.1136
103.0908,82.9465
103.0908,82.9465
103.2764,82.8166
103.3200,82.7620
103.3272,82.6925
103.2957,82.6301
103.2764,82.6134
103.1329,82.5130
103.0908,82.4835
102.9237,82.3164
102.7882,82.1228
102.6883,81.9087
102.6271,81.6804
102.6065,81.4450
102.6271,81.2096
102.6883,80.9813
102.7882,80.7672
102.8177,80.7250
102.9237,80.5736
103.0908,80.4065
103.0908,80.4065
103.2764,80.2766
103.3200,80.2220
103.3272,80.1525
103.2957,80.0901
103.2764,80.0734
103.1839,80.0087
103.0908,79.9435
102.9237,79.7764
102.7882,79.5828
102.6883,79.3687
102.6271,79.1404
102.6065,78.9050
102.6271,78.6696
102.6783,78.4787
102.6883,78.4413
102.6883,78.4413
102.6883,78.4413
102.7882,78.2272
102.8390,78.1545
102.9237,78.0336
103.0908,77.8665
103.0908,77.8665
103.2764,77.7366
103.3200,77.6820
103.3272,77.6125
103.2957,77.5501
103.2764,77.5334
103.2542,77.5179
103.0908,77.4035
102.9237,77.2364
102.7882,77.0428
102.6883,76.8287
102.6271,76.6004
102.6065,76.3650
102.6271,76.1296
102.6838,75.9182
102.6883,75.9013
102.6883,75.9013
102.6883,75.9013
102.7882,75.6872
102.8068,75.6605
102.9237,75.4936
103.0908,75.3265
103.0908,75.3265
103.2764,75.1966
103.3200,75.1420
103.3272,75.0725
103.2957,75.0101
103.2764,74.9934
103.2402,74.9681
103.0908,74.8635
102.9237,74.6964
102.7882,74.5028
102.6883,74.2887
102.6271,74.0604
102.6065,73.8250
102.6271,73.5896
102.6883,73.3613
102.7882,73.1472
102.8103,73.1156
102.9237,72.9536
103.0908,72.7865
103.0908,72.7865
103.2764,72.6566
103.3200,72.6020
103.3272,72.5325
103.2957,72.4701
103.2764,72.4534
103.2180,72.4125
103.0908,72.3235
102.9891,72.2218
102.9278,72.1883
102.9014,72.1855
101.2167,72.1855
101.1497,72.2052
101.1039,72.2580
101.0927,72.3095
101.0927,90.8727
101.1124,90.9398
101.1290,90.9604
102.4600,92.2914
102.5213,92.3249
102.5910,92.3199
102.6470,92.2780
102.6714,92.2126
102.6717,92.2037
102.6717,90.4871
102.6781,90.4275
102.6869,90.4038
102.7284,90.2927
102.7284,90.2927
102.8147,90.1775
102.8147,90.1775
102.9299,90.0912
102.9299,90.0912
103.0647,90.0409
103.0647,90.0409
103.1243,90.0345
103.1243,90.0345
103.1243,90.0345
103.1243,90.0345
104.9201,90.0345
104.9201,90.0345
104.9797,90.0409
105.1145,90.0912
105.1145,90.0912
105.2297,90.1775
105.2297,90.1775
105.3160,90.2927
105.3160,90.2927
105.3575,90.4038
105.3993,90.4598
105.4648,90.4842
105.4736,90.4845
114.7559,90.4845
114.9299,90.5191
114.9299,90.5191
115.0118,90.5530
115.0118,90.5530
115.0937,90.5870
115.1822,90.6461
115.1822,90.6461
115.2412,90.6855
115.2412,90.6855
122.5989,98.0432
122.6602,98.0767
122.6866,98.0795
145.2878,98.0795
145.3549,98.0598
145.3755,98.0432
150.5065,92.9122
150.5400,92.8509
150.5350,92.7812
150.5238,92.7587
150.5238,92.7586
150.5238,92.7586
150.4655,92.6270
150.4592,92.5815
150.4517,92.5273
150.4517,92.5273
150.4517,91.9680
150.4517,91.3527
150.4655,91.2530
150.5238,91.1214
150.5238,91.1214
150.5238,91.1214
150.6168,91.0116
150.6168,91.0116
150.7370,90.9324
150.7370,90.9324
150.8331,90.9024
150.8331,90.9024
152.8137,90.5723
152.8766,90.5419
152.8810,90.5377
154.5104,88.9083
154.5439,88.8470
154.5467,88.8206
154.5467,86.5484
154.5270,86.4813
154.4742,86.4356
154.4051,86.4256
154.3415,86.4546
154.3350,86.4607
153.7617,87.0340
153.6967,87.0990
153.6362,87.1595
153.4888,87.2580
153.4887,87.2580
153.4887,87.2580
153.3488,87.3160
153.3488,87.3160
153.3249,87.3259
153.3249,87.3259
153.3249,87.3259
153.3249,87.3259
153.1509,87.3605
153.1509,87.3605
153.1509,87.3605
144.0594,87.3605
143.9924,87.3802
143.9717,87.3968
143.9159,87.4527
143.7816,87.5355
143.7349,87.5875
143.7227,87.6411
143.7227,87.9787
143.6881,88.1527
143.6881,88.1527
143.6542,88.2346
143.6542,88.2346
143.6202,88.3165
143.6202,88.3165
143.6068,88.3365
143.5578,88.4100
143.5217,88.4640
143.5217,88.4640
140.2417,91.7440
140.1162,91.8695
140.1162,91.8695
139.9688,91.9680
139.9687,91.9680
139.8458,92.0189
139.8049,92.0359
139.8049,92.0359
139.8049,92.0359
139.6309,92.0705
139.6309,92.0705
139.6309,92.0705
134.9960,92.0705
134.9960,92.0705
134.8220,92.0359
134.7270,91.9965
134.6582,91.9680
134.5697,91.9089
134.5107,91.8695
131.7880,89.1468
131.7267,89.1133
131.7003,89.1105
131.4497,89.1105
131.4497,89.1105
131.3469,89.1000
131.1804,89.0448
131.0310,88.9527
130.9252,88.8468
130.8638,88.8133
130.8375,88.8105
130.5935,88.8105
130.5935,88.8105
130.4195,88.7759
130.3376,88.7420
130.2557,88.7080
130.1205,88.6177
130.1082,88.6095
128.7452,87.2465
128.7452,87.2465
128.6467,87.0990
128.5788,86.9352
128.5774,86.9283
128.5557,86.8192
128.5442,86.7612
128.5442,85.7443
128.5245,85.6773
128.5175,85.6674
128.5145,85.6637
128.5145,85.6637
128.4224,85.5143
128.3672,85.3478
128.3567,85.2450
128.3567,84.1950
128.3605,84.1580
128.3672,84.0922
128.3672,84.0922
128.4027,83.9850
128.4224,83.9257
128.5145,83.7763
128.6385,83.6523
128.7879,83.5602
128.9544,83.5050
128.9544,83.5050
129.0572,83.4945
129.8322,83.4945
129.8322,83.4945
129.9350,83.5050
129.9350,83.5050
130.1015,83.5602
130.1015,83.5602
130.2509,83.6523
130.3749,83.7763
130.3749,83.7763
130.3770,83.7797
130.3790,83.7815
130.3794,83.7820
130.3795,83.7819
130.4289,83.8264
130.4979,83.8376
130.5620,83.8098
130.5880,83.7797
130.5899,83.7767
130.5899,83.7767
130.7139,83.6527
130.8631,83.5606
130.8631,83.5606
131.0295,83.5055
131.0295,83.5055
131.1322,83.4950
131.2697,83.4950
131.2697,85.9450
131.1322,85.9450
131.1322,85.9450
131.0295,85.9345
130.8631,85.8794
130.8631,85.8794
130.7139,85.7873
130.5899,85.6633
130.5880,85.6603
130.5862,85.6587
130.5854,85.6577
130.5852,85.6578
130.5361,85.6136
130.4671,85.6024
130.4030,85.6302
130.3770,85.6603
130.3749,85.6637
130.3719,85.6674
130.3458,85.7322
130.3452,85.7443
130.3452,86.2481
130.3649,86.3152
130.3815,86.3358
130.8887,86.8430
130.9500,86.8765
131.0197,86.8715
131.0415,86.8609
131.1804,86.7752
131.1804,86.7752
131.1804,86.7752
131.3469,86.7200
131.3469,86.7200
131.4497,86.7095
132.1997,86.7095
132.1997,86.7095
132.3025,86.7200
132.3025,86.7200
132.4690,86.7752
132.4690,86.7752
132.6184,86.8673
132.7424,86.9913
132.7442,86.9942
132.7459,86.9957
132.7469,86.9970
132.7471,86.9968
132.7961,87.0409
132.8651,87.0521
132.9292,87.0243
132.9553,86.9942
132.9558,86.9933
132.9742,86.9283
132.9742,84.9700
132.6072,84.9700
132.6072,85.2450
132.5967,85.3477
132.5416,85.5141
132.5416,85.5141
132.4495,85.6633
132.3255,85.7873
132.1763,85.8794
132.1763,85.8794
132.0099,85.9345
132.0099,85.9345
131.9072,85.9450
131.7697,85.9450
131.7697,85.9450
131.7697,84.9700
132.6072,84.9700
132.9742,84.9700
132.9742,84.4700
132.6072,84.4700
131.7697,84.4700
131.7697,83.4950
131.9072,83.4950
131.9072,83.4950
132.0099,83.5055
132.1763,83.5606
132.1763,83.5606
132.3255,83.6527
132.4495,83.7767
132.5416,83.9259
132.5416,83.9259
132.5967,84.0923
132.5967,84.0923
132.6072,84.1950
132.6072,84.4700
132.9742,84.4700
132.9742,83.2588
132.9742,83.2588
133.0088,83.0848
133.0697,82.9378
133.0767,82.9210
133.0767,82.9210
133.0767,82.9209
133.1752,82.7735
133.2337,82.7150
133.3007,82.6480
133.8259,82.1228
134.3854,81.5633
134.4189,81.5020
134.4217,81.4756
134.4217,80.9750
134.4217,80.9750
134.4322,80.8722
134.4322,80.8722
134.4874,80.7057
134.5795,80.5563
134.7035,80.4323
134.8529,80.3402
135.0194,80.2850
135.0194,80.2850
135.1222,80.2745
136.0222,80.2745
136.0222,80.2745
136.1250,80.2850
136.1250,80.2850
136.2915,80.3402
136.2915,80.3402
136.4409,80.4323
136.5649,80.5563
136.6570,80.7057
136.6570,80.7057
136.6774,80.7672
136.7122,80.8722
136.7122,80.8722
136.7122,80.8722
136.7227,80.9750
136.7227,82.3250
136.7227,82.3250
136.7122,82.4278
136.7122,82.4278
136.6570,82.5943
136.6570,82.5943
136.6349,82.6301
136.5649,82.7437
136.4409,82.8677
136.2915,82.9598
136.1250,83.0150
136.0222,83.0255
135.5216,83.0255
135.4545,83.0452
135.4339,83.0618
134.8115,83.6842
134.7780,83.7455
134.7752,83.7719
134.7752,86.9283
134.7937,86.9934
134.8845,87.1407
134.8845,87.1407
134.8973,87.1793
134.9397,87.3072
134.9397,87.3072
134.9397,87.3072
134.9502,87.4100
134.9502,88.4100
134.9502,88.4100
134.9397,88.5128
134.9397,88.5128
134.9049,88.6177
134.8845,88.6793
134.7924,88.8287
134.6684,88.9527
134.5190,89.0448
134.4950,89.0528
134.4376,89.0925
134.4108,89.1571
134.4231,89.2258
134.4464,89.2582
135.4214,90.2332
135.4827,90.2667
135.5091,90.2695
139.1178,90.2695
139.1849,90.2498
139.2055,90.2332
141.7769,87.6618
141.8104,87.6005
141.8054,87.5308
141.7635,87.4749
141.7543,87.4686
141.7285,87.4527
141.6045,87.3287
141.5124,87.1793
141.4572,87.0128
141.4467,86.9100
141.4467,86.0100
141.4572,85.9072
141.5124,85.7407
141.6045,85.5913
141.7285,85.4673
141.8779,85.3752
142.0444,85.3200
142.0444,85.3200
142.1472,85.3095
143.4972,85.3095
143.4972,85.3095
143.6000,85.3200
143.6000,85.3200
143.7665,85.3752
143.7665,85.3752
143.9159,85.4673
143.9717,85.5232
144.0331,85.5567
144.0594,85.5595
152.6378,85.5595
152.7049,85.5398
152.7255,85.5232
154.8775,83.3712
154.8775,83.3712
158.6654,79.5833
158.6989,79.5220
158.7017,79.4956
158.7017,71.1200
150.6875,71.1200
150.6682,71.3161
150.6682,71.3161
150.6189,71.4786
150.6110,71.5047
150.6043,71.5172
150.5988,71.5276
150.5973,71.5303
150.5827,71.5888
150.5827,73.9687
150.5481,74.1427
150.5481,74.1427
150.5226,74.2042
150.4802,74.3065
150.4324,74.3782
150.4324,74.3782
150.4155,74.4035
150.3817,74.4540
150.3817,74.4540
146.6517,78.1840
146.5262,78.3095
146.5262,78.3095
146.3788,78.4080
146.3788,78.4080
146.3787,78.4080
146.3339,78.4266
146.2149,78.4759
146.0409,78.5105
146.0409,78.5105
146.0409,78.5105
142.3494,78.5105
142.2824,78.5302
142.2617,78.5468
142.2059,78.6027
142.0565,78.6948
141.8900,78.7500
141.7872,78.7605
140.4372,78.7605
140.3344,78.7500
140.1679,78.6948
140.0185,78.6027
139.8945,78.4787
139.8024,78.3293
139.7472,78.1628
139.7367,78.0600
139.7367,77.1600
139.7472,77.0572
139.8024,76.8907
139.8945,76.7413
140.0185,76.6173
140.1269,76.5504
140.1679,76.5252
140.1679,76.5252
140.1936,76.5167
140.3344,76.4700
140.3344,76.4700
140.4372,76.4595
141.7872,76.4595
141.7872,76.4595
141.8900,76.4700
141.8900,76.4700
142.0565,76.5252
142.0565,76.5252
142.2059,76.6173
142.2617,76.6732
142.3231,76.7067
142.3494,76.7095
145.5278,76.7095
145.5949,76.6898
145.6155,76.6732
148.7454,73.5433
148.7789,73.4820
148.7817,73.4556
148.7817,71.5888
148.7671,71.5303
148.7534,71.5047
148.6962,71.3161
148.6769,71.1200
148.6962,70.9239
148.7534,70.7353
148.7534,70.7353
148.7534,70.7353
148.8463,70.5615
148.8463,70.5615
148.9713,70.4091
149.1237,70.2841
149.1237,70.2841
149.2975,70.1912
149.2975,70.1912
149.4861,70.1340
149.4861,70.1340
149.6822,70.1147
149.8783,70.1340
150.0669,70.1912
150.2407,70.2841
150.2407,70.2841
150.3931,70.4091
150.5181,70.5615
150.5181,70.5615
150.6110,70.7353
150.6682,70.9239
150.6875,71.1200
158.7017,71.1200
158.7017,69.6825
142.1672,69.6825
141.1922,69.6825
141.1922,68.8450
140.6922,68.8450
140.6922,69.6825
139.7172,69.6825
139.7172,69.5450
139.7172,69.5450
139.7277,69.4423
139.7828,69.2759
139.7828,69.2759
139.8749,69.1267
139.9989,69.0027
140.1481,68.9106
140.1481,68.9106
140.3145,68.8555
140.3145,68.8555
140.4172,68.8450
140.6922,68.8450
141.1922,68.8450
141.4672,68.8450
141.4672,68.8450
141.5699,68.8555
141.7363,68.9106
141.7363,68.9106
141.8855,69.0027
142.0095,69.1267
142.1016,69.2759
142.1016,69.2759
142.1567,69.4423
142.1567,69.4423
142.1672,69.5450
142.1672,69.6825
158.7017,69.6825
158.7017,61.9845
158.6820,61.9175
158.6292,61.8717
158.5777,61.8605
124.5267,61.8605
Z" /> 
<path style="fill:#000000; fill-opacity:1.0000; stroke:none;fill-rule:evenodd;"
d="M 98.1697,57.5402
98.1239,57.5930
98.1127,57.6445
98.1127,112.0927
98.1324,112.1598
98.1852,112.2055
98.2358,112.2167
122.9729,112.3995
122.9738,112.3995
164.2977,112.3995
164.3647,112.3798
164.4105,112.3270
164.4217,112.2755
164.4217,104.0600
122.2070,104.0600
122.1879,104.3032
122.1309,104.5405
122.0375,104.7659
121.9137,104.9679
121.2532,104.3075
121.2282,104.3679
121.1571,104.4744
121.0666,104.5649
120.9601,104.6360
120.8997,104.6610
121.5601,105.3215
121.3581,105.4453
121.1327,105.5387
120.8954,105.5957
120.8954,105.5957
120.6522,105.6148
120.4090,105.5957
120.1717,105.5387
119.9463,105.4453
119.7443,105.3215
119.7443,105.3215
120.4047,104.6610
120.3443,104.6360
120.2378,104.5649
120.1473,104.4744
120.0762,104.3679
120.0512,104.3075
119.3907,104.9679
119.3907,104.9679
119.2669,104.7659
119.1735,104.5405
119.1165,104.3032
119.0974,104.0600
119.1165,103.8168
119.1735,103.5795
119.2669,103.3541
119.3907,103.1521
120.0512,103.8125
120.0762,103.7521
120.1473,103.6456
120.2378,103.5551
120.3443,103.4840
120.4047,103.4590
119.7443,102.7985
119.9463,102.6747
120.1717,102.5813
120.4090,102.5243
120.4090,102.5243
120.6522,102.5052
120.8954,102.5243
121.1327,102.5813
121.3581,102.6747
121.5601,102.7985
120.8997,103.4590
120.9601,103.4840
121.0666,103.5551
121.1571,103.6456
121.2282,103.7521
121.2532,103.8125
121.9137,103.1521
122.0375,103.3541
122.1309,103.5795
122.1879,103.8168
122.2070,104.0600
164.4217,104.0600
164.4217,80.0087
160.5027,80.0087
160.4681,80.1827
160.4681,80.1827
160.4443,80.2401
160.4443,80.2401
160.4002,80.3465
160.4002,80.3465
160.3602,80.4065
160.3602,80.4065
160.3602,80.4065
160.3164,80.4720
160.3017,80.4940
160.3017,80.4940
156.3840,84.4117
156.3505,84.4730
156.3477,84.4994
156.3477,89.3337
156.3131,89.5077
156.3131,89.5077
156.2792,89.5896
156.2792,89.5896
156.2452,89.6715
156.2452,89.6715
156.1861,89.7600
156.1467,89.8190
156.1467,89.8190
155.0890,90.8767
155.0555,90.9380
155.0527,90.9644
155.0527,93.1567
155.0519,93.1675
155.0519,93.1676
155.0098,93.3052
155.0098,93.3052
154.9472,93.4003
154.9306,93.4254
154.9306,93.4254
154.8208,93.5184
154.8208,93.5184
154.8208,93.5184
154.6892,93.5767
154.5465,93.5956
154.5357,93.5947
152.7432,93.2959
152.6739,93.3043
152.6352,93.3305
146.4117,99.5540
146.2862,99.6795
146.2862,99.6795
146.1388,99.7780
146.1387,99.7780
146.0158,99.8289
145.9749,99.8459
145.9749,99.8459
145.9749,99.8459
145.8009,99.8805
145.8009,99.8805
145.8009,99.8805
122.1735,99.8805
122.1735,99.8805
121.9995,99.8459
121.9176,99.8120
121.8357,99.7780
121.8357,99.7780
121.8356,99.7780
121.7472,99.7189
121.7472,99.7189
121.7472,99.7189
121.6882,99.6795
114.3305,92.3218
114.2692,92.2883
114.2428,92.2855
105.4736,92.2855
105.4066,92.3052
105.3608,92.3580
105.3575,92.3662
105.3160,92.4773
105.3160,92.4773
105.2297,92.5925
105.2297,92.5925
105.1145,92.6788
105.1145,92.6788
104.9831,92.7278
104.9272,92.7697
104.9028,92.8351
104.9176,92.9034
104.9388,92.9317
105.0607,93.0536
105.1962,93.2472
105.1962,93.2472
105.2961,93.4613
105.2961,93.4613
105.3573,93.6896
105.3573,93.6896
105.3779,93.9250
105.3779,93.9250
105.3573,94.1604
105.3573,94.1604
105.2961,94.3887
105.2961,94.3887
105.2961,94.3887
105.1962,94.6028
105.1962,94.6028
105.1534,94.6639
105.0645,94.7909
105.0607,94.7964
105.0607,94.7964
104.8936,94.9635
104.8936,94.9635
104.7076,95.0937
104.6640,95.1483
104.6568,95.2178
104.6883,95.2802
104.7076,95.2969
104.8933,95.4269
104.8933,95.4269
105.0603,95.5939
105.0603,95.5939
105.1958,95.7874
105.1958,95.7874
105.2956,96.0015
105.2956,96.0015
105.3528,96.2150
105.3528,96.2150
104.4552,96.2150
104.4881,96.2720
104.5222,96.3992
104.5222,96.5308
104.4881,96.6580
104.4552,96.7150
105.3528,96.7150
105.2956,96.9285
105.2956,96.9285
105.1958,97.1426
105.0603,97.3361
104.8933,97.5031
104.6998,97.6386
104.4857,97.7384
104.4857,97.7384
104.2722,97.7956
104.2722,96.8980
104.2152,96.9309
104.0880,96.9650
103.9564,96.9650
103.8292,96.9309
103.7722,96.8980
103.7722,97.7956
103.5587,97.7384
103.5587,97.7384
103.3446,97.6386
103.1511,97.5031
102.9841,97.3361
102.8486,97.1426
102.7488,96.9285
102.7488,96.9285
102.6916,96.7150
103.5892,96.7150
103.5563,96.6580
103.5222,96.5308
103.5222,96.3992
103.5563,96.2720
103.5892,96.2150
102.6916,96.2150
102.6916,96.2150
102.7488,96.0015
102.7488,96.0015
102.8486,95.7874
102.8486,95.7874
102.9841,95.5939
102.9841,95.5939
103.1511,95.4269
103.3368,95.2969
103.3804,95.2423
103.3876,95.1728
103.3561,95.1104
103.3368,95.0937
103.3164,95.0795
103.1508,94.9635
103.0491,94.8618
102.9878,94.8283
102.9614,94.8255
102.7314,94.8255
102.7314,94.8255
102.5575,94.7909
102.4755,94.7570
102.3936,94.7230
102.3936,94.7230
102.3936,94.7230
102.3052,94.6639
102.3052,94.6639
102.3052,94.6639
102.2461,94.6245
99.4927,91.8711
99.4916,91.8695
99.3942,91.7236
99.3627,91.6477
99.3263,91.5597
99.2917,91.3858
99.2917,91.2084
99.2917,71.1963
99.2917,71.1963
99.2917,71.1963
99.3263,71.0223
99.3263,71.0223
99.3942,70.8585
99.3942,70.8584
99.4927,70.7110
99.4927,70.7110
99.6182,70.5855
99.6182,70.5855
99.7656,70.4870
99.7657,70.4870
99.9295,70.4191
99.9295,70.4191
100.1035,70.3845
100.1035,70.3845
102.9014,70.3845
102.9685,70.3648
102.9891,70.3482
103.0908,70.2465
103.0908,70.2465
103.2764,70.1166
103.3200,70.0620
103.3272,69.9925
103.2957,69.9301
103.2764,69.9134
103.2138,69.8696
103.0908,69.7835
102.9237,69.6164
102.7882,69.4228
102.6883,69.2087
102.6271,68.9804
102.6065,68.7450
102.6271,68.5096
102.6846,68.2950
102.6883,68.2813
102.6883,68.2813
102.6883,68.2813
102.7882,68.0672
102.9237,67.8736
102.9237,67.8736
103.0908,67.7065
103.0908,67.7065
103.2764,67.5766
103.3200,67.5220
103.3272,67.4525
103.2957,67.3901
103.2764,67.3734
103.1936,67.3155
103.0908,67.2435
102.9237,67.0764
102.7882,66.8828
102.6883,66.6687
102.6271,66.4404
102.6065,66.2050
102.6271,65.9696
102.6883,65.7413
102.7882,65.5272
102.8021,65.5073
102.9237,65.3336
102.9725,65.2848
103.0460,65.2113
103.0795,65.1500
103.0745,65.0803
103.0326,65.0243
103.0017,65.0074
102.8701,64.9584
102.8701,64.9583
102.7550,64.8722
102.7550,64.8722
102.6688,64.7571
102.6688,64.7571
102.6186,64.6224
102.6186,64.6224
102.6122,64.5628
102.6122,64.5628
102.6122,63.9150
103.5292,63.9150
103.4963,63.8580
103.4622,63.7308
103.4622,63.5992
103.4963,63.4720
103.5292,63.4150
102.6122,63.4150
102.6122,62.7672
102.6122,62.7672
102.6186,62.7076
102.6186,62.7076
102.6688,62.5729
102.6688,62.5729
102.7550,62.4578
102.7550,62.4578
102.8701,62.3716
102.8701,62.3716
103.0048,62.3214
103.0048,62.3214
103.0644,62.3150
103.7122,62.3150
103.7122,63.2320
103.7692,63.1991
103.8964,63.1650
104.0280,63.1650
104.1552,63.1991
104.2122,63.2320
104.2122,62.3150
104.8600,62.3150
104.9196,62.3214
104.9196,62.3214
105.0543,62.3716
105.0543,62.3716
105.1694,62.4578
105.1694,62.4578
105.2556,62.5729
105.2556,62.5729
105.3058,62.7076
105.3058,62.7076
105.3122,62.7672
105.3122,63.4150
104.3952,63.4150
104.4281,63.4720
104.4622,63.5992
104.4622,63.7308
104.4281,63.8580
104.3952,63.9150
105.3122,63.9150
105.3122,64.5628
105.3058,64.6224
105.3058,64.6224
105.2556,64.7571
105.2556,64.7571
105.1694,64.8722
105.1694,64.8722
105.0543,64.9583
105.0543,64.9584
104.9227,65.0074
104.8668,65.0493
104.8424,65.1148
104.8572,65.1830
104.8784,65.2113
104.9068,65.2397
104.9353,65.2682
104.9966,65.3017
105.0230,65.3045
105.8428,65.3045
105.9099,65.2848
105.9305,65.2682
110.9382,60.2605
110.9382,60.2605
110.9972,60.2211
110.9972,60.2211
111.0857,60.1620
111.0857,60.1620
111.1676,60.1280
111.1676,60.1280
111.2495,60.0941
111.2495,60.0941
111.4235,60.0595
111.4235,60.0595
111.4235,60.0595
113.8777,60.0595
113.9447,60.0398
113.9905,59.9870
114.0017,59.9355
114.0017,59.7433
114.0017,59.7433
114.0025,59.7325
114.0446,59.5948
114.1238,59.4746
114.1238,59.4746
114.2336,59.3816
114.3652,59.3233
114.3652,59.3233
114.5078,59.3044
114.5079,59.3044
114.5187,59.3053
114.5187,59.3053
114.9762,59.3816
118.2212,59.9224
118.2213,59.9224
118.2213,59.9224
118.3174,59.9524
118.4376,60.0316
118.4376,60.0316
118.4376,60.0316
118.4446,60.0398
118.5306,60.1414
118.5889,60.2730
118.5889,60.2730
118.6027,60.3727
118.6027,60.3727
118.6027,61.5473
118.5889,61.6470
118.5889,61.6470
118.5889,61.6470
118.5306,61.7786
118.5306,61.7786
118.4376,61.8884
118.4376,61.8884
118.3174,61.9676
118.3174,61.9676
118.2213,61.9976
114.5187,62.6147
114.5078,62.6156
114.3652,62.5967
114.2336,62.5384
114.1238,62.4454
114.0446,62.3252
114.0444,62.3243
114.0025,62.1876
114.0025,62.1876
114.0025,62.1875
114.0017,62.1767
114.0017,61.9845
113.9820,61.9175
113.9292,61.8717
113.8777,61.8605
111.9366,61.8605
111.8695,61.8802
111.8489,61.8968
106.8412,66.9045
106.8412,66.9045
106.7873,66.9405
106.7217,66.9843
106.6937,67.0030
106.6118,67.0370
106.5299,67.0709
106.3792,67.1009
106.3559,67.1055
106.3559,67.1055
106.3559,67.1055
106.3559,67.1055
105.0230,67.1055
104.9559,67.1252
104.9353,67.1418
104.8336,67.2435
104.8336,67.2435
104.6480,67.3734
104.6044,67.4280
104.5972,67.4975
104.6287,67.5599
104.6480,67.5766
104.8336,67.7065
104.8844,67.7573
104.9353,67.8082
104.9966,67.8417
105.0230,67.8445
106.6028,67.8445
106.6699,67.8248
106.6905,67.8082
109.1582,65.3405
109.1582,65.3405
109.2172,65.3011
109.2172,65.3011
109.3057,65.2420
109.3057,65.2420
109.3876,65.2080
109.3876,65.2080
109.4695,65.1741
109.4695,65.1741
109.6435,65.1395
109.6435,65.1395
109.6435,65.1395
112.9411,65.1395
113.0082,65.1198
113.0467,65.0806
113.0469,65.0803
113.1295,64.9463
113.2535,64.8223
113.3463,64.7651
113.4029,64.7302
113.4029,64.7302
113.4043,64.7297
113.5694,64.6750
113.5694,64.6750
113.6722,64.6645
114.5722,64.6645
114.5722,64.6645
114.6750,64.6750
114.6750,64.6750
114.8415,64.7302
114.8415,64.7302
114.9909,64.8223
115.1149,64.9463
115.2070,65.0957
115.2070,65.0957
115.2349,65.1797
115.2622,65.2622
115.2622,65.2622
115.2622,65.2622
115.2727,65.3650
115.2727,66.7150
115.2727,66.7150
115.2622,66.8178
115.2622,66.8178
115.2159,66.9575
115.2070,66.9843
115.1866,67.0174
115.1682,67.0848
115.1891,67.1515
115.2045,67.1702
116.5175,68.4832
116.5788,68.5167
116.6051,68.5195
123.1310,68.5195
123.2857,68.5503
123.2857,68.5503
123.4314,68.6106
123.4314,68.6106
123.5631,68.6986
123.6298,68.7195
123.6320,68.7195
124.7655,68.7195
124.7655,68.7195
124.7731,68.7195
124.9313,68.7195
125.0076,68.7400
125.0840,68.7604
125.0840,68.7604
125.2209,68.8395
125.2209,68.8395
125.4809,69.0995
126.8646,70.4832
126.9259,70.5167
126.9523,70.5195
127.5424,70.5195
127.6094,70.4998
127.6552,70.4470
127.6651,70.3779
127.6361,70.3143
127.6301,70.3078
124.2991,66.9768
124.2377,66.9433
124.2114,66.9405
120.3109,66.9405
118.4033,66.9405
118.3362,66.9602
118.2977,66.9994
118.2149,67.1337
118.0909,67.2577
117.9415,67.3498
117.7750,67.4050
117.6722,67.4155
116.7722,67.4155
116.7722,67.4155
116.7722,67.4155
116.7159,67.4097
116.6694,67.4050
116.5029,67.3498
116.3535,67.2577
116.2295,67.1337
116.1374,66.9843
116.0822,66.8178
116.0717,66.7150
116.0717,65.3650
116.0822,65.2622
116.1374,65.0957
116.2295,64.9463
116.3535,64.8223
116.4463,64.7651
116.5029,64.7302
116.5029,64.7302
116.5043,64.7297
116.6694,64.6750
116.6694,64.6750
116.7722,64.6645
117.6722,64.6645
117.6722,64.6645
117.7750,64.6750
117.7750,64.6750
117.9415,64.7302
117.9415,64.7302
118.0909,64.8223
118.2149,64.9463
118.2149,64.9463
118.2893,65.0670
118.2977,65.0806
118.3497,65.1273
118.4033,65.1395
119.1977,65.1395
119.2647,65.1198
119.3105,65.0670
119.3217,65.0155
119.3217,62.7513
119.3217,62.7513
119.3563,62.5773
119.3563,62.5773
119.4242,62.4135
119.4242,62.4134
119.5227,62.2660
119.5227,62.2660
119.6482,62.1405
119.8565,61.9322
119.8900,61.8709
119.8850,61.8012
119.8738,61.7787
119.8738,61.7786
119.8738,61.7786
119.8155,61.6470
119.8092,61.6015
119.8017,61.5473
119.8017,61.5473
119.8017,60.3727
119.8155,60.2730
119.8738,60.1414
119.8738,60.1414
119.8738,60.1414
119.9668,60.0316
119.9668,60.0316
120.0870,59.9524
120.0870,59.9524
120.1831,59.9224
120.1831,59.9224
123.8857,59.3053
123.8857,59.3053
123.8965,59.3044
123.8966,59.3044
124.0392,59.3233
124.0392,59.3233
124.1708,59.3816
124.2806,59.4746
124.3598,59.5948
124.3598,59.5948
124.4019,59.7324
124.4019,59.7325
124.4027,59.7433
124.4027,59.9355
124.4224,60.0025
124.4752,60.0483
124.5267,60.0595
159.6909,60.0595
159.8649,60.0941
159.8649,60.0941
160.0287,60.1620
160.0288,60.1620
160.1762,60.2605
160.1762,60.2605
160.3017,60.3860
160.3017,60.3860
160.4002,60.5334
160.4002,60.5335
160.4681,60.6973
160.4681,60.6973
160.5027,60.8713
160.5027,80.0087
164.4217,80.0087
164.4217,57.6445
164.4020,57.5775
164.3492,57.5317
164.2977,57.5205
98.2367,57.5205
Z" /> 
</g>
<g style="fill:#FFFFFF; fill-opacity:1.0000; stroke:none;">
<circle cx="128.7522" cy="64.0600" r="0.1500" /> 
</g>
<g style="fill:#FFFFFF; fill-opacity:1.0000; stroke:none;">
<circle cx="128.7522" cy="64.0600" r="0.1500" /> 
</g>
<g style="fill:#FFFFFF; fill-opacity:1.0000; stroke:none;">
<circle cx="120.6522" cy="84.0600" r="0.6500" /> 
</g>
<g style="fill:#FFFFFF; fill-opacity:1.0000; stroke:none;">
<circle cx="120.6522" cy="104.0600" r="0.6500" /> 
</g>
<g style="fill:#FFFFFF; fill-opacity:1.0000; stroke:none;">
<circle cx="149.6822" cy="71.1200" r="0.2500" /> 
</g>
<g style="fill:#FFFFFF; fill-opacity:1.0000; stroke:none;">
<circle cx="149.6822" cy="68.5800" r="0.2500" /> 
</g>
<g style="fill:#FFFFFF; fill-opacity:1.0000; stroke:none;">
<circle cx="104.0222" cy="91.3850" r="0.5000" /> 
</g>
<g style="fill:#FFFFFF; fill-opacity:1.0000; stroke:none;">
<circle cx="104.0222" cy="93.9250" r="0.5000" /> 
</g>
<g style="fill:#FFFFFF; fill-opacity:1.0000; stroke:none;">
<circle cx="104.0222" cy="96.4650" r="0.5000" /> 
</g>
<g style="fill:#FFFFFF; fill-opacity:1.0000; stroke:none;">
<circle cx="103.9622" cy="63.6650" r="0.5000" /> 
</g>
<g style="fill:#FFFFFF; fill-opacity:1.0000; stroke:none;">
<circle cx="103.9622" cy="66.2050" r="0.5000" /> 
</g>
<g style="fill:#FFFFFF; fill-opacity:1.0000; stroke:none;">
<circle cx="103.9622" cy="68.7450" r="0.5000" /> 
</g>
<g style="fill:#FFFFFF; fill-opacity:1.0000; stroke:none;">
<circle cx="103.9622" cy="71.2850" r="0.5000" /> 
</g>
<g style="fill:#FFFFFF; fill-opacity:1.0000; stroke:none;">
<circle cx="103.9622" cy="73.8250" r="0.5000" /> 
</g>
<g style="fill:#FFFFFF; fill-opacity:1.0000; stroke:none;">
<circle cx="103.9622" cy="76.3650" r="0.5000" /> 
</g>
<g style="fill:#FFFFFF; fill-opacity:1.0000; stroke:none;">
<circle cx="103.9622" cy="78.9050" r="0.5000" /> 
</g>
<g style="fill:#FFFFFF; fill-opacity:1.0000; stroke:none;">
<circle cx="103.9622" cy="81.4450" r="0.5000" /> 
</g>
<g style="fill:#FFFFFF; fill-opacity:1.0000; stroke:none;">
<circle cx="103.9622" cy="83.9850" r="0.5000" /> 
<path style="fill:none; 
stroke:#000000; stroke-width:0.0500; stroke-opacity:1; 
stroke-linecap:round; stroke-linejoin:round;fill:none"
d="M 164.9222,57.0200
97.6122,57.0200
97.6122,112.9000
164.9222,112.9000
Z" /> 
</g> 
</svg>
