<?xml version="1.0" standalone="no"?>
 <!DOCTYPE svg PUBLIC "-//W3C//DTD SVG 1.1//EN" 
 "http://www.w3.org/Graphics/SVG/1.1/DTD/svg11.dtd"> 
<svg
  xmlns:svg="http://www.w3.org/2000/svg"
  xmlns="http://www.w3.org/2000/svg"
  xmlns:xlink="http://www.w3.org/1999/xlink"
  version="1.1"
  width="297.0022mm" height="210.0072mm" viewBox="0.0000 0.0000 297.0022 210.0072">
<title>SVG Image created as PCF2123-B_Cu.svg date 2024/05/22 10:28:58 </title>
  <desc>Image generated by PCBNEW </desc>
<g style="fill:#000000; fill-opacity:1.0000;stroke:#000000; stroke-opacity:1.0000;
stroke-linecap:round; stroke-linejoin:round;"
 transform="translate(0 0) scale(1 1)">
<path style="fill:#000000; fill-opacity:1.0000; stroke:none;fill-rule:evenodd;"
d="M 189.6500,104.9900
189.6500,103.2900
191.3500,103.2900
191.3500,104.9900
Z" /> 
</g>
<g style="fill:#000000; fill-opacity:1.0000; stroke:none;">
<circle cx="190.5000" cy="106.6800" r="0.8500" /> 
<circle cx="190.5000" cy="109.2200" r="0.8500" /> 
<path style="fill:#000000; fill-opacity:1.0000; stroke:none;fill-rule:evenodd;"
d="M 189.6500,77.3950
189.6500,75.6950
191.3500,75.6950
191.3500,77.3950
Z" /> 
<circle cx="190.5000" cy="79.0850" r="0.8500" /> 
<circle cx="190.5000" cy="81.6250" r="0.8500" /> 
<circle cx="190.5000" cy="84.1650" r="0.8500" /> 
<circle cx="190.5000" cy="86.7050" r="0.8500" /> 
<circle cx="190.5000" cy="89.2450" r="0.8500" /> 
<circle cx="190.5000" cy="91.7850" r="0.8500" /> 
<circle cx="190.5000" cy="94.3250" r="0.8500" /> 
<circle cx="190.5000" cy="96.8650" r="0.8500" /> 
<circle cx="156.6100" cy="68.2500" r="0.5000" /> 
</g>
<g style="fill:#000000; fill-opacity:1.0000; stroke:none;">
<circle cx="156.6100" cy="70.7900" r="0.5000" /> 
<path style="fill:#000000; fill-opacity:1.0000; stroke:none;fill-rule:evenodd;"
d="M 169.2791,107.7300
167.1791,107.7300
167.1791,105.6300
169.2791,105.6300
Z" /> 
</g>
<g style="fill:#000000; fill-opacity:1.0000; stroke:none;">
<circle cx="148.2291" cy="106.6800" r="1.0500" /> 
</g>
<g style="fill:#000000; fill-opacity:1.0000; stroke:none;">
<circle cx="160.2700" cy="79.9800" r="0.5000" /> 
</g>
<g style="fill:#000000; fill-opacity:1.0000; stroke:none;">
<circle cx="187.9600" cy="76.2000" r="0.5000" /> 
</g>
<g style="fill:#000000; fill-opacity:1.0000; stroke:none;">
<circle cx="175.2600" cy="73.6600" r="0.5000" /> 
</g>
<g style="fill:#000000; fill-opacity:1.0000; stroke:none;">
<circle cx="160.7100" cy="89.8600" r="0.5000" /> 
</g>
<g style="fill:#000000; fill-opacity:1.0000; stroke:none;">
<circle cx="167.9600" cy="73.6400" r="0.5000" /> 
</g>
<g style="fill:#000000; fill-opacity:1.0000; stroke:none;">
<circle cx="175.2600" cy="71.1200" r="0.5000" /> 
</g>
<g style="fill:#000000; fill-opacity:1.0000; stroke:none;">
<circle cx="167.6400" cy="88.9000" r="0.5000" /> 
</g>
<g style="fill:#000000; fill-opacity:1.0000; stroke:none;">
<circle cx="167.6400" cy="78.7400" r="0.5000" /> 
</g>
<g style="fill:#000000; fill-opacity:1.0000; stroke:none;">
<circle cx="163.2500" cy="84.4300" r="0.5000" /> 
</g>
<g style="fill:#000000; fill-opacity:1.0000; stroke:none;">
<circle cx="163.9400" cy="90.2600" r="0.5000" /> 
</g>
<g style="fill:#000000; fill-opacity:1.0000; stroke:none;">
<circle cx="185.4200" cy="101.6000" r="0.5000" /> 
</g>
<g style="fill:#000000; fill-opacity:1.0000; stroke:none;">
<circle cx="172.7200" cy="106.6800" r="0.5000" /> 
</g>
<g style="fill:none; 
stroke:#000000; stroke-width:0.8000; stroke-opacity:1; 
stroke-linecap:round; stroke-linejoin:round;">
<path d="M175.2600 73.6600
L177.8000 76.2000
" />
<path d="M160.2700 79.9800
L161.6200 79.9800
" />
<path d="M177.8000 76.2000
L187.9600 76.2000
" />
<path d="M161.6200 79.9800
L167.9600 73.6400
" />
<path d="M160.2700 89.4200
L160.6200 89.7700
" />
<path d="M160.2700 79.9800
L160.2700 89.4200
" />
<path d="M167.6400 78.7400
L167.6400 88.9000
" />
<path d="M175.2600 71.1200
L167.6400 78.7400
" />
</g>
<g style="fill:none; 
stroke:#000000; stroke-width:0.4000; stroke-opacity:1; 
stroke-linecap:round; stroke-linejoin:round;">
<path d="M190.5000 84.1650
L191.7500 85.4150
" />
<path d="M191.7500 105.4300
L190.5000 106.6800
" />
<path d="M191.7500 85.4150
L191.7500 105.4300
" />
<path d="M163.2500 89.4600
L163.9400 90.1500
" />
<path d="M163.9400 90.1500
L163.9400 90.2600
" />
<path d="M163.2500 84.4300
L163.2500 89.4600
" />
<path d="M163.9400 90.2600
L164.0500 90.2600
" />
</g>
<g style="fill:none; 
stroke:#000000; stroke-width:0.8000; stroke-opacity:1; 
stroke-linecap:round; stroke-linejoin:round;">
<path d="M172.7200 106.6800
L180.3400 106.6800
" />
<path d="M180.3400 106.6800
L185.4200 101.6000
" />
<path style="fill:#000000; fill-opacity:1.0000; stroke:none;fill-rule:evenodd;"
d="M 194.4325,66.7802
194.4783,66.8330
194.4895,66.8845
194.4895,121.2955
194.4698,121.3625
194.4170,121.4083
194.3655,121.4195
138.4645,121.4195
138.3975,121.3998
138.3517,121.3470
138.3405,121.2955
138.3405,106.6800
146.6743,106.6800
146.6934,106.9232
146.7504,107.1605
146.8438,107.3859
146.9676,107.5879
147.6280,106.9275
147.6531,106.9879
147.7242,107.0944
147.8147,107.1849
147.9212,107.2560
147.9816,107.2810
147.3211,107.9415
147.5232,108.0653
147.7486,108.1587
147.9859,108.2157
147.9859,108.2157
148.2291,108.2348
148.4723,108.2157
148.7095,108.1587
148.9349,108.0653
149.1370,107.9415
149.1370,107.9415
148.9734,107.7779
166.6786,107.7779
166.6786,107.7779
166.6850,107.8375
166.7353,107.9723
166.7353,107.9723
166.8215,108.0875
166.8215,108.0875
166.9368,108.1738
166.9368,108.1738
167.0716,108.2241
167.0716,108.2241
167.0785,108.2248
167.1312,108.2305
169.3270,108.2305
169.3866,108.2241
169.5214,108.1738
169.6366,108.0875
169.7229,107.9723
169.7732,107.8375
169.7796,107.7779
169.7796,106.6800
171.7147,106.6800
171.7340,106.8761
171.7340,106.8761
171.7817,107.0336
171.7912,107.0647
171.8841,107.2385
171.8841,107.2385
172.0091,107.3909
172.1615,107.5159
172.1615,107.5159
172.3353,107.6088
172.3353,107.6088
172.3353,107.6088
172.5239,107.6660
172.7200,107.6853
172.9161,107.6660
173.1047,107.6088
173.1303,107.5951
173.1888,107.5805
180.4287,107.5805
180.4287,107.5805
180.6027,107.5459
180.6846,107.5120
180.7665,107.4780
180.7665,107.4780
180.7666,107.4780
180.8550,107.4189
180.8550,107.4189
180.8550,107.4189
180.9140,107.3795
181.6135,106.6800
189.1443,106.6800
189.1649,106.9154
189.1649,106.9154
189.2261,107.1437
189.2261,107.1437
189.2261,107.1437
189.2703,107.2385
189.3260,107.3578
189.3260,107.3578
189.3688,107.4189
189.4615,107.5514
189.6286,107.7185
189.7985,107.8375
189.8146,107.8487
189.8582,107.9033
189.8654,107.9728
189.8339,108.0352
189.8146,108.0519
189.6289,108.1819
189.6289,108.1819
189.4619,108.3489
189.4619,108.3489
189.3264,108.5424
189.3264,108.5424
189.2266,108.7565
189.2266,108.7565
189.1694,108.9700
189.1694,108.9700
190.0670,108.9700
190.0341,109.0270
190.0000,109.1542
190.0000,109.2858
190.0341,109.4130
190.0670,109.4700
189.1694,109.4700
189.2266,109.6835
189.2266,109.6835
189.3264,109.8976
189.4619,110.0911
189.6289,110.2581
189.8224,110.3936
190.0365,110.4934
190.0365,110.4934
190.2500,110.5506
190.2500,109.6530
190.3070,109.6859
190.4342,109.7200
190.5658,109.7200
190.6930,109.6859
190.7500,109.6530
190.7500,110.5506
190.9635,110.4934
190.9635,110.4934
191.1776,110.3936
191.3711,110.2581
191.5381,110.0911
191.6736,109.8976
191.7734,109.6835
191.7734,109.6835
191.8306,109.4700
190.9330,109.4700
190.9659,109.4130
191.0000,109.2858
191.0000,109.1542
190.9659,109.0270
190.9330,108.9700
191.8306,108.9700
191.8306,108.9700
191.7734,108.7565
191.7734,108.7565
191.6736,108.5424
191.6736,108.5424
191.5381,108.3489
191.5381,108.3489
191.3711,108.1819
191.1854,108.0519
191.1418,107.9973
191.1346,107.9278
191.1661,107.8654
191.1854,107.8487
191.3714,107.7185
191.5385,107.5514
191.6740,107.3578
191.7739,107.1437
191.8351,106.9154
191.8557,106.6800
191.8351,106.4446
191.8306,106.4278
191.8322,106.3579
191.8626,106.3080
192.2941,105.8765
192.3708,105.7618
192.4236,105.6343
192.4340,105.5821
192.4505,105.4990
192.4505,85.3460
192.4236,85.2107
192.4236,85.2107
192.4236,85.2107
192.4236,85.2107
192.3708,85.0832
192.3708,85.0832
192.3497,85.0516
192.3497,85.0516
192.2941,84.9685
192.2941,84.9685
191.8627,84.5370
191.8292,84.4757
191.8306,84.4172
191.8351,84.4004
191.8557,84.1650
191.8351,83.9296
191.7739,83.7013
191.6740,83.4872
191.5385,83.2936
191.5385,83.2936
191.3714,83.1265
191.3714,83.1265
191.1858,82.9966
191.1422,82.9420
191.1350,82.8725
191.1665,82.8101
191.1858,82.7934
191.2080,82.7779
191.3714,82.6635
191.5385,82.4964
191.6740,82.3028
191.7739,82.0887
191.8351,81.8604
191.8557,81.6250
191.8351,81.3896
191.7739,81.1613
191.6740,80.9472
191.5385,80.7536
191.5385,80.7536
191.3714,80.5865
191.3714,80.5865
191.1858,80.4566
191.1422,80.4020
191.1350,80.3325
191.1665,80.2701
191.1858,80.2534
191.2080,80.2379
191.3714,80.1235
191.5385,79.9564
191.6740,79.7628
191.7739,79.5487
191.8351,79.3204
191.8557,79.0850
191.8351,78.8496
191.7739,78.6213
191.6740,78.4072
191.5385,78.2136
191.4162,78.0913
191.3827,78.0300
191.3877,77.9603
191.4296,77.9043
191.4605,77.8874
191.5921,77.8384
191.5921,77.8383
191.7072,77.7522
191.7072,77.7522
191.7934,77.6371
191.7934,77.6371
191.8436,77.5024
191.8436,77.5024
191.8500,77.4428
191.8500,77.4428
191.8500,76.7950
190.9330,76.7950
190.9659,76.7380
191.0000,76.6108
191.0000,76.4792
190.9659,76.3520
190.9330,76.2950
191.8500,76.2950
191.8500,75.6472
191.8500,75.6472
191.8436,75.5876
191.8436,75.5876
191.7934,75.4529
191.7934,75.4529
191.7072,75.3378
191.7072,75.3378
191.5921,75.2516
191.5921,75.2516
191.4574,75.2014
191.4574,75.2014
191.3978,75.1950
190.7500,75.1950
190.7500,76.1120
190.6930,76.0791
190.5658,76.0450
190.4342,76.0450
190.3070,76.0791
190.2500,76.1120
190.2500,75.1950
189.6022,75.1950
189.5426,75.2014
189.5426,75.2014
189.4079,75.2516
189.4079,75.2516
189.2928,75.3378
189.2928,75.3378
189.2066,75.4529
189.2066,75.4529
189.1564,75.5876
189.1564,75.5876
189.1500,75.6472
189.1500,76.2950
190.0670,76.2950
190.0341,76.3520
190.0000,76.4792
190.0000,76.6108
190.0341,76.7380
190.0670,76.7950
189.1500,76.7950
189.1500,77.4428
189.1564,77.5024
189.1564,77.5024
189.2066,77.6371
189.2066,77.6371
189.2928,77.7522
189.2928,77.7522
189.4079,77.8383
189.4079,77.8384
189.5395,77.8874
189.5954,77.9293
189.6198,77.9948
189.6050,78.0630
189.5838,78.0913
189.4615,78.2136
189.3260,78.4072
189.3260,78.4072
189.2261,78.6213
189.2261,78.6213
189.1649,78.8496
189.1649,78.8496
189.1443,79.0850
189.1443,79.0850
189.1649,79.3204
189.1649,79.3204
189.2261,79.5487
189.2261,79.5487
189.2261,79.5487
189.3260,79.7628
189.3260,79.7628
189.4615,79.9564
189.4615,79.9564
189.6286,80.1235
189.6286,80.1235
189.8142,80.2534
189.8578,80.3080
189.8650,80.3775
189.8335,80.4399
189.8142,80.4566
189.6286,80.5865
189.4615,80.7536
189.3260,80.9472
189.3260,80.9472
189.2261,81.1613
189.2261,81.1613
189.1649,81.3896
189.1649,81.3896
189.1443,81.6250
189.1443,81.6250
189.1649,81.8604
189.1649,81.8604
189.2261,82.0887
189.2261,82.0887
189.2261,82.0887
189.3260,82.3028
189.3260,82.3028
189.4615,82.4964
189.4615,82.4964
189.6286,82.6635
189.6286,82.6635
189.8142,82.7934
189.8578,82.8480
189.8650,82.9175
189.8335,82.9799
189.8142,82.9966
189.6286,83.1265
189.4615,83.2936
189.3260,83.4872
189.3260,83.4872
189.2261,83.7013
189.2261,83.7013
189.1649,83.9296
189.1649,83.9296
189.1443,84.1650
189.1443,84.1650
189.1649,84.4004
189.1649,84.4004
189.2261,84.6287
189.2261,84.6287
189.2261,84.6287
189.3129,84.8147
189.3260,84.8428
189.3260,84.8428
189.4615,85.0364
189.4615,85.0364
189.6286,85.2035
189.6286,85.2035
189.8142,85.3334
189.8578,85.3880
189.8650,85.4575
189.8335,85.5199
189.8142,85.5366
189.6286,85.6665
189.4615,85.8336
189.3260,86.0272
189.3260,86.0272
189.2261,86.2413
189.2261,86.2413
189.1649,86.4696
189.1649,86.4696
189.1443,86.7050
189.1443,86.7050
189.1649,86.9404
189.1649,86.9404
189.2261,87.1687
189.2261,87.1687
189.2261,87.1687
189.3260,87.3828
189.3260,87.3828
189.4615,87.5764
189.4615,87.5764
189.6286,87.7435
189.6286,87.7435
189.8142,87.8734
189.8578,87.9280
189.8650,87.9975
189.8335,88.0599
189.8142,88.0766
189.6286,88.2065
189.4615,88.3736
189.3260,88.5672
189.3260,88.5672
189.2261,88.7813
189.2261,88.7813
189.1649,89.0096
189.1649,89.0096
189.1443,89.2450
189.1443,89.2450
189.1649,89.4804
189.1649,89.4804
189.2261,89.7087
189.2261,89.7087
189.2261,89.7087
189.3038,89.8753
189.3260,89.9228
189.3260,89.9228
189.4615,90.1164
189.4615,90.1164
189.6286,90.2835
189.6286,90.2835
189.8142,90.4134
189.8578,90.4680
189.8650,90.5375
189.8335,90.5999
189.8142,90.6166
189.6286,90.7465
189.4615,90.9136
189.3260,91.1072
189.3260,91.1072
189.2261,91.3213
189.2261,91.3213
189.1649,91.5496
189.1649,91.5496
189.1443,91.7850
189.1443,91.7850
189.1649,92.0204
189.1649,92.0204
189.2261,92.2487
189.2261,92.2487
189.2261,92.2487
189.3260,92.4628
189.3260,92.4628
189.4615,92.6564
189.4615,92.6564
189.6286,92.8235
189.6286,92.8235
189.8142,92.9534
189.8578,93.0080
189.8650,93.0775
189.8335,93.1399
189.8142,93.1566
189.6286,93.2865
189.4615,93.4536
189.3260,93.6472
189.3260,93.6472
189.2261,93.8613
189.2261,93.8613
189.1649,94.0896
189.1649,94.0896
189.1443,94.3250
189.1443,94.3250
189.1649,94.5604
189.1649,94.5604
189.2261,94.7887
189.2261,94.7887
189.2261,94.7887
189.3260,95.0028
189.3260,95.0028
189.4615,95.1964
189.4615,95.1964
189.6286,95.3635
189.6286,95.3635
189.8142,95.4934
189.8578,95.5480
189.8650,95.6175
189.8335,95.6799
189.8142,95.6966
189.6286,95.8265
189.4615,95.9936
189.3260,96.1872
189.3260,96.1872
189.2261,96.4013
189.2261,96.4013
189.1649,96.6296
189.1649,96.6296
189.1443,96.8650
189.1443,96.8650
189.1649,97.1004
189.1649,97.1004
189.2261,97.3287
189.2261,97.3287
189.2261,97.3287
189.3260,97.5428
189.3260,97.5428
189.4343,97.6975
189.4615,97.7364
189.6286,97.9035
189.7254,97.9713
189.8222,98.0390
189.8222,98.0390
189.8222,98.0390
190.0363,98.1389
190.2646,98.2001
190.4529,98.2165
190.5000,98.2207
190.5000,98.2207
190.5000,98.2207
190.5392,98.2172
190.7354,98.2001
190.8872,98.1594
190.8934,98.1577
190.9633,98.1594
191.0211,98.1986
191.0486,98.2628
191.0495,98.2775
191.0495,102.6655
191.0298,102.7325
190.9770,102.7783
190.9255,102.7895
189.6021,102.7895
189.6021,102.7895
189.5425,102.7959
189.4077,102.8462
189.4077,102.8462
189.2925,102.9325
189.2925,102.9325
189.2062,103.0477
189.2062,103.0477
189.1559,103.1825
189.1495,103.2421
189.1495,103.2421
189.1495,105.0379
189.1495,105.0379
189.1559,105.0975
189.2062,105.2323
189.2062,105.2323
189.2925,105.3475
189.2925,105.3475
189.4077,105.4338
189.4077,105.4338
189.5391,105.4828
189.5950,105.5247
189.6194,105.5901
189.6046,105.6584
189.5834,105.6867
189.4615,105.8086
189.3260,106.0022
189.3260,106.0022
189.2261,106.2163
189.2261,106.2163
189.1649,106.4446
189.1649,106.4446
189.1443,106.6800
189.1443,106.6800
181.6135,106.6800
185.7253,102.5682
185.7770,102.5372
185.8047,102.5288
185.9785,102.4359
185.9785,102.4359
186.1309,102.3109
186.2559,102.1585
186.3488,101.9847
186.4060,101.7961
186.4253,101.6000
186.4060,101.4039
186.3488,101.2153
186.3488,101.2153
186.3488,101.2153
186.2559,101.0415
186.2559,101.0415
186.1309,100.8891
185.9785,100.7641
185.9785,100.7641
185.8047,100.6712
185.8047,100.6712
185.6161,100.6140
185.6161,100.6140
185.4200,100.5947
185.2239,100.6140
185.0353,100.6712
184.8615,100.7641
184.8615,100.7641
184.7091,100.8891
184.5841,101.0415
184.5841,101.0415
184.4912,101.2153
184.4912,101.2153
184.4828,101.2430
184.4518,101.2947
180.0033,105.7432
179.9420,105.7767
179.9156,105.7795
173.1888,105.7795
173.1303,105.7649
173.1212,105.7600
173.1047,105.7512
172.9161,105.6940
172.7200,105.6747
172.5239,105.6940
172.3353,105.7512
172.1615,105.8441
172.1615,105.8441
172.0091,105.9691
171.8841,106.1215
171.8841,106.1215
171.7912,106.2953
171.7340,106.4839
171.7147,106.6800
169.7796,106.6800
169.7796,105.5821
169.7732,105.5225
169.7644,105.4990
169.7229,105.3877
169.7229,105.3877
169.6366,105.2725
169.6366,105.2725
169.5214,105.1862
169.5214,105.1862
169.3866,105.1359
169.3866,105.1359
169.3270,105.1295
169.3270,105.1295
169.3270,105.1295
169.3270,105.1295
167.1312,105.1295
167.1312,105.1295
167.0716,105.1359
166.9368,105.1862
166.9368,105.1862
166.8215,105.2725
166.8215,105.2725
166.7353,105.3877
166.7353,105.3877
166.6850,105.5225
166.6786,105.5821
166.6786,105.5821
166.6786,105.5821
166.6786,107.7779
148.9734,107.7779
148.4766,107.2810
148.5370,107.2560
148.6434,107.1849
148.7340,107.0944
148.8051,106.9879
148.8301,106.9275
149.4906,107.5879
149.4906,107.5879
149.6144,107.3859
149.7078,107.1605
149.7647,106.9232
149.7839,106.6800
149.7647,106.4368
149.7078,106.1995
149.6144,105.9741
149.4906,105.7721
148.8301,106.4325
148.8051,106.3721
148.7340,106.2656
148.6434,106.1751
148.5370,106.1040
148.4766,106.0790
149.1370,105.4185
148.9349,105.2947
148.7095,105.2013
148.4723,105.1443
148.4723,105.1443
148.2291,105.1252
147.9859,105.1443
147.7486,105.2013
147.5232,105.2947
147.3211,105.4185
147.9816,106.0790
147.9212,106.1040
147.8147,106.1751
147.7242,106.2656
147.6531,106.3721
147.6280,106.4325
146.9676,105.7721
146.8438,105.9741
146.7504,106.1995
146.6934,106.4368
146.6743,106.6800
138.3405,106.6800
138.3405,84.4300
162.2447,84.4300
162.2640,84.6261
162.3212,84.8147
162.4141,84.9885
162.4141,84.9885
162.4534,85.0364
162.5214,85.1192
162.5487,85.1835
162.5495,85.1979
162.5495,89.3910
162.5495,89.5290
162.5495,89.5290
162.5495,89.5290
162.5764,89.6643
162.5764,89.6643
162.6292,89.7918
162.7059,89.9065
162.7059,89.9065
162.9044,90.1050
162.9379,90.1663
162.9401,90.2049
162.9347,90.2600
162.9347,90.2600
162.9540,90.4561
163.0112,90.6447
163.1041,90.8185
163.1041,90.8185
163.2291,90.9709
163.3815,91.0959
163.3815,91.0959
163.5553,91.1888
163.5553,91.1888
163.5553,91.1888
163.7439,91.2460
163.9400,91.2653
164.1361,91.2460
164.3247,91.1888
164.4985,91.0959
164.6509,90.9709
164.7759,90.8185
164.8688,90.6447
164.9260,90.4561
164.9453,90.2600
164.9260,90.0639
164.8688,89.8753
164.8688,89.8753
164.8688,89.8753
164.7759,89.7015
164.7759,89.7015
164.6509,89.5491
164.4985,89.4241
164.4985,89.4241
164.3247,89.3312
164.3247,89.3312
164.1361,89.2740
164.1361,89.2740
164.0899,89.2694
164.0251,89.2433
164.0144,89.2337
163.9868,89.2062
163.9533,89.1448
163.9505,89.1185
163.9505,88.9000
166.6347,88.9000
166.6540,89.0961
166.6540,89.0961
166.7079,89.2740
166.7112,89.2847
166.8041,89.4585
166.8041,89.4585
166.9291,89.6109
167.0815,89.7359
167.0815,89.7359
167.2553,89.8288
167.2553,89.8288
167.2553,89.8288
167.4439,89.8860
167.6400,89.9053
167.8361,89.8860
168.0247,89.8288
168.1985,89.7359
168.3509,89.6109
168.4759,89.4585
168.5688,89.2847
168.6260,89.0961
168.6453,88.9000
168.6260,88.7039
168.5688,88.5153
168.5551,88.4897
168.5405,88.4312
168.5405,79.2088
168.5551,79.1503
168.5688,79.1247
168.5772,79.0970
168.6082,79.0453
175.5653,72.0882
175.6170,72.0572
175.6447,72.0488
175.8185,71.9559
175.9709,71.8309
176.0959,71.6785
176.1888,71.5047
176.2460,71.3161
176.2653,71.1200
176.2460,70.9239
176.1888,70.7353
176.1888,70.7353
176.1888,70.7353
176.0959,70.5615
176.0959,70.5615
175.9709,70.4091
175.8185,70.2841
175.8185,70.2841
175.6447,70.1912
175.6447,70.1912
175.4561,70.1340
175.4561,70.1340
175.2600,70.1147
175.0639,70.1340
174.8753,70.1912
174.7015,70.2841
174.7015,70.2841
174.5491,70.4091
174.4241,70.5615
174.4241,70.5615
174.3312,70.7353
174.3228,70.7630
174.2918,70.8147
167.3347,77.7718
167.2830,77.8028
167.2553,77.8112
167.2553,77.8112
167.0815,77.9041
167.0815,77.9041
166.9291,78.0291
166.8041,78.1815
166.8041,78.1815
166.7112,78.3553
166.6540,78.5439
166.6347,78.7400
166.6540,78.9361
166.7112,79.1247
166.7249,79.1503
166.7395,79.2088
166.7395,88.4312
166.7249,88.4897
166.7112,88.5153
166.6954,88.5672
166.6540,88.7039
166.6347,88.9000
163.9505,88.9000
163.9505,85.1979
163.9702,85.1309
163.9786,85.1192
164.0859,84.9885
164.1324,84.9016
164.1788,84.8147
164.1788,84.8147
164.1788,84.8147
164.2360,84.6261
164.2553,84.4300
164.2360,84.2339
164.1788,84.0453
164.1788,84.0453
164.1788,84.0453
164.0859,83.8715
164.0859,83.8715
163.9609,83.7191
163.8085,83.5941
163.8085,83.5941
163.6347,83.5012
163.6347,83.5012
163.4461,83.4440
163.4461,83.4440
163.2500,83.4247
163.0539,83.4440
162.8653,83.5012
162.6915,83.5941
162.6915,83.5941
162.5391,83.7191
162.4141,83.8715
162.4141,83.8715
162.3212,84.0453
162.2640,84.2339
162.2447,84.4300
138.3405,84.4300
138.3405,70.7900
155.6047,70.7900
155.6240,70.9861
155.6812,71.1747
155.7741,71.3485
155.7741,71.3485
155.8991,71.5009
156.0515,71.6259
156.0515,71.6259
156.2253,71.7188
156.2253,71.7188
156.2253,71.7188
156.4139,71.7760
156.6100,71.7953
156.8061,71.7760
156.9947,71.7188
157.1685,71.6259
157.3209,71.5009
157.4459,71.3485
157.5388,71.1747
157.5960,70.9861
157.6153,70.7900
157.5960,70.5939
157.5388,70.4053
157.5388,70.4053
157.5388,70.4053
157.4459,70.2315
157.4459,70.2315
157.3209,70.0791
157.1685,69.9541
157.1685,69.9541
156.9947,69.8612
156.9947,69.8612
156.8061,69.8040
156.8061,69.8040
156.6100,69.7847
156.4139,69.8040
156.2253,69.8612
156.0515,69.9541
156.0515,69.9541
155.8991,70.0791
155.7741,70.2315
155.7741,70.2315
155.6812,70.4053
155.6240,70.5939
155.6047,70.7900
138.3405,70.7900
138.3405,68.2500
155.6047,68.2500
155.6240,68.4461
155.6812,68.6347
155.7741,68.8085
155.7741,68.8085
155.8991,68.9609
156.0515,69.0859
156.0515,69.0859
156.2253,69.1788
156.2253,69.1788
156.2253,69.1788
156.4139,69.2360
156.6100,69.2553
156.8061,69.2360
156.9947,69.1788
157.1685,69.0859
157.3209,68.9609
157.4459,68.8085
157.5388,68.6347
157.5960,68.4461
157.6153,68.2500
157.5960,68.0539
157.5388,67.8653
157.5388,67.8653
157.5388,67.8653
157.4459,67.6915
157.4459,67.6915
157.3209,67.5391
157.1685,67.4141
157.1685,67.4141
156.9947,67.3212
156.9947,67.3212
156.8061,67.2640
156.8061,67.2640
156.6100,67.2447
156.4139,67.2640
156.2253,67.3212
156.0515,67.4141
156.0515,67.4141
155.8991,67.5391
155.7741,67.6915
155.7741,67.6915
155.6812,67.8653
155.6240,68.0539
155.6047,68.2500
138.3405,68.2500
138.3405,66.8845
138.3602,66.8175
138.4130,66.7717
138.4645,66.7605
194.3655,66.7605
Z" /> 
</g>
<g style="fill:#FFFFFF; fill-opacity:1.0000; stroke:none;">
<circle cx="160.2700" cy="79.9800" r="0.1500" /> 
</g>
<g style="fill:#FFFFFF; fill-opacity:1.0000; stroke:none;">
<circle cx="187.9600" cy="76.2000" r="0.1500" /> 
</g>
<g style="fill:#FFFFFF; fill-opacity:1.0000; stroke:none;">
<circle cx="175.2600" cy="73.6600" r="0.1500" /> 
</g>
<g style="fill:#FFFFFF; fill-opacity:1.0000; stroke:none;">
<circle cx="160.7100" cy="89.8600" r="0.1500" /> 
</g>
<g style="fill:#FFFFFF; fill-opacity:1.0000; stroke:none;">
<circle cx="167.9600" cy="73.6400" r="0.1500" /> 
</g>
<g style="fill:#FFFFFF; fill-opacity:1.0000; stroke:none;">
<circle cx="175.2600" cy="71.1200" r="0.1500" /> 
</g>
<g style="fill:#FFFFFF; fill-opacity:1.0000; stroke:none;">
<circle cx="167.6400" cy="88.9000" r="0.1500" /> 
</g>
<g style="fill:#FFFFFF; fill-opacity:1.0000; stroke:none;">
<circle cx="167.6400" cy="78.7400" r="0.1500" /> 
</g>
<g style="fill:#FFFFFF; fill-opacity:1.0000; stroke:none;">
<circle cx="163.2500" cy="84.4300" r="0.1500" /> 
</g>
<g style="fill:#FFFFFF; fill-opacity:1.0000; stroke:none;">
<circle cx="163.9400" cy="90.2600" r="0.1500" /> 
</g>
<g style="fill:#FFFFFF; fill-opacity:1.0000; stroke:none;">
<circle cx="185.4200" cy="101.6000" r="0.1500" /> 
</g>
<g style="fill:#FFFFFF; fill-opacity:1.0000; stroke:none;">
<circle cx="172.7200" cy="106.6800" r="0.1500" /> 
</g>
<g style="fill:#FFFFFF; fill-opacity:1.0000; stroke:none;">
<circle cx="190.5000" cy="104.1400" r="0.5000" /> 
</g>
<g style="fill:#FFFFFF; fill-opacity:1.0000; stroke:none;">
<circle cx="190.5000" cy="106.6800" r="0.5000" /> 
</g>
<g style="fill:#FFFFFF; fill-opacity:1.0000; stroke:none;">
<circle cx="190.5000" cy="109.2200" r="0.5000" /> 
</g>
<g style="fill:#FFFFFF; fill-opacity:1.0000; stroke:none;">
<circle cx="190.5000" cy="76.5450" r="0.5000" /> 
</g>
<g style="fill:#FFFFFF; fill-opacity:1.0000; stroke:none;">
<circle cx="190.5000" cy="79.0850" r="0.5000" /> 
</g>
<g style="fill:#FFFFFF; fill-opacity:1.0000; stroke:none;">
<circle cx="190.5000" cy="81.6250" r="0.5000" /> 
</g>
<g style="fill:#FFFFFF; fill-opacity:1.0000; stroke:none;">
<circle cx="190.5000" cy="84.1650" r="0.5000" /> 
</g>
<g style="fill:#FFFFFF; fill-opacity:1.0000; stroke:none;">
<circle cx="190.5000" cy="86.7050" r="0.5000" /> 
</g>
<g style="fill:#FFFFFF; fill-opacity:1.0000; stroke:none;">
<circle cx="190.5000" cy="89.2450" r="0.5000" /> 
</g>
<g style="fill:#FFFFFF; fill-opacity:1.0000; stroke:none;">
<circle cx="190.5000" cy="91.7850" r="0.5000" /> 
</g>
<g style="fill:#FFFFFF; fill-opacity:1.0000; stroke:none;">
<circle cx="190.5000" cy="94.3250" r="0.5000" /> 
</g>
<g style="fill:#FFFFFF; fill-opacity:1.0000; stroke:none;">
<circle cx="190.5000" cy="96.8650" r="0.5000" /> 
</g>
<g style="fill:#FFFFFF; fill-opacity:1.0000; stroke:none;">
<circle cx="156.6100" cy="68.2500" r="0.2500" /> 
</g>
<g style="fill:#FFFFFF; fill-opacity:1.0000; stroke:none;">
<circle cx="156.6100" cy="70.7900" r="0.2500" /> 
</g>
<g style="fill:#FFFFFF; fill-opacity:1.0000; stroke:none;">
<circle cx="168.2291" cy="106.6800" r="0.6500" /> 
</g>
<g style="fill:#FFFFFF; fill-opacity:1.0000; stroke:none;">
<circle cx="148.2291" cy="106.6800" r="0.6500" /> 
<path style="fill:none; 
stroke:#000000; stroke-width:0.0500; stroke-opacity:1; 
stroke-linecap:round; stroke-linejoin:round;fill:none"
d="M 137.8400,66.2600
194.9900,66.2600
194.9900,121.9200
137.8400,121.9200
Z" /> 
</g> 
</svg>
